<?xml version="1.0" encoding="UTF-8"?>
<svg width="1300px" height="606px" viewBox="0 0 1300 606" version="1.1" xmlns="http://www.w3.org/2000/svg" xmlns:xlink="http://www.w3.org/1999/xlink">
    <!-- Generator: Sketch 43.2 (39069) - http://www.bohemiancoding.com/sketch -->
    <title>about-below-header-background</title>
    <desc>Created with Sketch.</desc>
    <defs></defs>
    <g id="SIte-Pages" stroke="none" stroke-width="1" fill="none" fill-rule="evenodd" opacity="0.5">
        <g id="/about/" transform="translate(0.000000, -504.000000)" fill="#EAECED">
            <g id="about-below-header-background" transform="translate(650.000000, 807.000000) scale(-1, 1) translate(-650.000000, -807.000000) translate(0.000000, 504.000000)">
                <g id="Group-39" transform="translate(0.000000, 1.000000)">
                    <polygon id="Fill-1" points="443.857143 604.202682 534.235294 604.202682 534.235294 0 443.857143 0"></polygon>
                    <polygon id="Fill-2" points="626.621849 604.202682 717 604.202682 717 0 626.621849 0"></polygon>
                    <path d="M176.739496,349.203055 L176.739496,0 L86.3613445,0 L86.3613445,323.822528" id="Fill-3"></path>
                    <path d="M353.478992,0 L263.10084,0 L263.10084,393.095068 C296.869764,415.755679 327.201941,462.957759 353.478992,473.538332 L353.478992,0 Z" id="Fill-5"></path>
                    <path d="M354.818597,454.601295 C328.191185,423.947544 297.45458,396.818643 263.235403,374.158031 C236.909252,356.724475 208.524487,341.946601 178.348227,330.266018 C168.565294,326.478209 158.619681,322.979454 148.471218,319.858075 C127.76458,313.488855 107.174429,308.536802 86.7650336,304.885491 C57.3961513,299.628325 28.4028403,297.083046 0,297.083046 L0,359.584903 C42.4114538,359.584903 86.3131429,366.080584 130.763126,380.085641 C243.549034,415.61316 330.743866,499.521055 374.671664,604.240821 L441.906983,604.240821 C422.411412,549.099799 392.769387,498.296591 354.818597,454.601295" id="Fill-13"></path>
                    <path d="M124.725866,443.607215 C82.310395,428.492111 40.3568571,421.536755 0,421.536755 L0,484.018539 C33.9801765,484.018539 69.3441429,490.038485 105.079664,503.170359 C158.521269,522.811964 202.575597,558.606456 233.231866,603.710889 L306.004353,603.710889 C268.58579,530.750906 205.166437,472.275729 124.725866,443.607215" id="Fill-16"></path>
                    <path d="M0,545.990464 L0,603.237162 L151.746924,603.237162 C135.404546,588.049795 116.427143,575.461905 95.2224202,566.310542 C62.857,552.347639 30.6984454,545.990464 0,545.990464" id="Fill-19"></path>
                </g>
                <rect id="Rectangle-11" transform="translate(1008.500000, 303.000000) scale(1, -1) translate(-1008.500000, -303.000000) " x="717" y="0" width="583" height="606"></rect>
            </g>
        </g>
    </g>
</svg>