<?xml version="1.0" encoding="UTF-8"?>
<svg viewBox="0 0 1300 501" version="1.1" xmlns="http://www.w3.org/2000/svg" xmlns:xlink="http://www.w3.org/1999/xlink">
    <!-- Generator: Sketch 43.2 (39069) - http://www.bohemiancoding.com/sketch -->
    <title>home-header-background</title>
    <desc>Created with Sketch.</desc>
    <defs>
        <rect id="path-1" x="0" y="0" width="1300" height="501"></rect>
    </defs>
    <g id="SIte-Pages" stroke="none" stroke-width="1" fill="none" fill-rule="evenodd">
        <g id="/">
            <g id="Group-23">
                <g id="home-header-background">
                    <mask id="mask-2" fill="white">
                        <use xlink:href="#path-1"></use>
                    </mask>
                    <use id="Mask" fill="#3B3D40" xlink:href="#path-1"></use>
                    <g id="home-header" opacity="0.283571105" mask="url(#mask-2)">
                        <g transform="translate(0.025355, -323.000000)">
                            <path d="M1156.39732,498.915671 C1205.33393,489.988386 1253.64305,485.674243 1300.9469,485.674243 L1300.9469,-0.000328571429 L1156.39732,110.596814 L1156.39732,498.915671 Z" id="Fill-1" fill="#000000"></path>
                            <path d="M1011.84774,538.950786 L1011.84774,221.199214 L867.298155,331.796357 L867.298155,613.871643 C911.983688,583.932214 960.325668,558.678214 1011.84774,538.950786" id="Fill-4" fill="#000000"></path>
                            <path d="M722.743973,442.400729 L578.197675,552.997871 L578.197675,988.187443 C610.461799,896.982586 659.680932,813.039157 722.743973,741.029443 L722.743973,442.400729 Z" id="Fill-6" fill="#000000"></path>
                            <polygon id="Fill-8" fill="#000000" points="289.099823 988.448657 433.649406 988.448657 433.649406 663.596657 289.099823 774.197086"></polygon>
                            <polygon id="Fill-14" fill="#AAAAAA" points="0.000657043559 0.000657142858 0.000657043559 988.448657 9.08099903 988.448657 1300.9469 0.000657142858"></polygon>
                            <path d="M1058.08784,522.949029 C1042.40092,527.779029 1026.99982,533.147886 1011.8484,538.950457 C960.326325,558.677886 911.984345,583.935171 867.298812,613.871314 C813.477089,649.928743 764.99713,692.781029 722.742659,741.028457 C659.682903,813.038171 610.46377,896.9816 578.199646,988.189743 C578.166794,988.275171 578.133942,988.3606 578.104375,988.449314 L688.086896,988.449314 C759.94118,817.036886 902.568911,679.690743 1087.05032,621.536886 C1159.76204,598.612457 1231.57362,587.979886 1300.94756,587.979886 L1300.94756,485.6726 C1253.64043,485.6726 1205.33458,489.990029 1156.39798,498.917314 C1123.86775,504.848029 1091.06814,512.799457 1058.08784,522.949029" id="Fill-17" fill="#FFFFFF"></path>
                            <path d="M800.405208,988.448657 L919.441789,988.448657 C969.587354,914.618657 1041.64861,856.0278 1129.06497,823.877086 C1187.51556,802.381943 1245.36168,792.528086 1300.94756,792.528086 L1300.94756,690.253657 C1234.93111,690.250371 1166.3062,701.635371 1096.92897,726.380086 C965.349423,773.306657 861.6121,869.0228 800.405208,988.448657" id="Fill-20" fill="#FFFFFF"></path>
                        </g>
                    </g>
                </g>
            </g>
        </g>
    </g>
</svg>