<?xml version="1.0" encoding="UTF-8"?>
<svg width="1300px" height="501px" viewBox="0 0 1300 501" version="1.1" xmlns="http://www.w3.org/2000/svg" xmlns:xlink="http://www.w3.org/1999/xlink">
    <!-- Generator: Sketch 43.2 (39069) - http://www.bohemiancoding.com/sketch -->
    <title>the-guide-header-background</title>
    <desc>Created with Sketch.</desc>
    <defs>
        <rect id="path-1" x="0" y="0" width="1300" height="501"></rect>
    </defs>
    <g id="SIte-Pages" stroke="none" stroke-width="1" fill="none" fill-rule="evenodd">
        <g id="/the-guide/">
            <g id="Group-34">
                <g id="the-guide-header-background">
                    <rect id="Rectangle-Copy-10" fill="#3B3D40" x="0" y="0" width="1300" height="501"></rect>
                    <g id="Group-29-Copy">
                        <mask id="mask-2" fill="white">
                            <use xlink:href="#path-1"></use>
                        </mask>
                        <use id="Mask" fill="#3B3D40" xlink:href="#path-1"></use>
                        <g opacity="0.28" mask="url(#mask-2)">
                            <g transform="translate(874.000000, 70.000000) rotate(-360.000000) translate(-874.000000, -70.000000) translate(0.000000, -667.000000)">
                                <polygon id="Fill-1" fill="#000000" points="1081.95285 1473.05818 1302.25999 1473.05818 1302.25999 0 1081.95285 0"></polygon>
                                <path d="M430.822854,851.364006 L430.822854,0 L210.515713,0 L210.515713,789.485775" id="Fill-3" fill="#000000"></path>
                                <path d="M861.645708,0 L641.338567,0 L641.338567,958.373608 C723.654205,1013.62063 797.592373,1128.70024 861.645708,1154.49589 L861.645708,0 Z" id="Fill-5" fill="#000000"></path>
                                <path d="M864.91115,1108.32701 C800.00377,1033.59256 725.079759,967.451757 641.66658,912.204734 C577.493558,869.701378 508.302428,833.672626 434.744321,805.195133 C410.897297,795.960379 386.65372,787.430345 361.915676,779.82036 C311.440862,764.292075 261.25,752.218871 211.499751,743.316901 C139.909722,730.499827 69.235191,724.294386 1.04591891e-11,724.294386 L1.04591891e-11,876.675158 C103.382798,876.675158 210.398216,892.511757 318.750164,926.656365 C593.678789,1013.27316 806.226223,1217.84228 913.305285,1473.15116 L1077.19911,1473.15116 C1029.67641,1338.71625 957.420566,1214.85702 864.91115,1108.32701" id="Fill-13" fill="#FFFFFF"></path>
                                <path d="M304.033647,1081.52323 C200.641057,1044.6723 98.3744822,1027.71501 3.18323146e-12,1027.71501 L3.18323146e-12,1180.04684 C82.8305894,1180.04684 169.034326,1194.72359 256.14377,1226.73936 C386.41383,1274.62598 493.801322,1361.89367 568.529505,1471.85918 L745.920815,1471.85918 C654.708763,1293.98128 500.116794,1151.41764 304.033647,1081.52323" id="Fill-16" fill="#FFFFFF"></path>
                            </g>
                        </g>
                    </g>
                </g>
            </g>
        </g>
    </g>
</svg>