<?xml version="1.0" encoding="UTF-8"?>
<svg width="293px" height="61px" viewBox="0 0 293 61" version="1.1" xmlns="http://www.w3.org/2000/svg" xmlns:xlink="http://www.w3.org/1999/xlink">
    <!-- Generator: Sketch 43.2 (39069) - http://www.bohemiancoding.com/sketch -->
    <title>full-logo</title>
    <desc>Created with Sketch.</desc>
    <defs></defs>
    <g id="SIte-Pages" stroke="none" stroke-width="1" fill="none" fill-rule="evenodd">
        <g id="/community/" transform="translate(0.000000, -193.000000)">
            <g id="ID-/-logo/-white" transform="translate(0.000000, 194.000000)">
                <g id="ID-/-logo/-grey" fill="#FFFFFF">
                    <g id="logo-words" transform="translate(80.000000, 11.000000)">
                        <path d="M7.41572805,36.0445689 C3.51679736,36.0445689 0.718792409,33.1376098 0.718792409,29.5448967 L0.718792409,29.5086262 C0.718792409,25.9159131 3.55257624,22.9722 7.45102343,22.9722 C11.3504376,22.9722 14.1494096,25.8796426 14.1494096,29.4718721 L14.1494096,29.5086262 C14.1494096,33.1023066 11.3146587,36.0445689 7.41572805,36.0445689 Z M7.45102343,33.4804869 C9.69058779,33.4804869 11.243101,31.7114541 11.243101,29.5448967 L11.243101,29.5086262 C11.243101,27.3425525 9.65480891,25.536282 7.41572805,25.536282 C5.17664719,25.536282 3.62510099,27.3053148 3.62510099,29.4718721 L3.62510099,29.5086262 C3.62510099,31.6756672 5.21339307,33.4804869 7.45102343,33.4804869 Z M16.6220201,35.8274295 L19.4016521,35.8274295 L19.4016521,30.9357492 L25.4313601,30.9357492 L25.4313601,28.4069705 L19.4016521,28.4069705 L19.4016521,25.7166672 L26.2421868,25.7166672 L26.2421868,23.1893393 L16.6220201,23.1893393 L16.6220201,35.8274295 Z M39.7994805,36.0445689 C42.2367957,36.0445689 43.6805218,35.1779459 44.9801653,33.7870934 L43.2100779,32.0001672 C42.2184228,32.902577 41.3326538,33.4804869 39.8884442,33.4804869 C37.7228551,33.4804869 36.2249772,31.6756672 36.2249772,29.5086262 L36.2249772,29.4718721 C36.2249772,27.3053148 37.759601,25.536282 39.8884442,25.536282 C41.1523089,25.536282 42.1454145,26.0784049 43.1211142,26.9629213 L44.8892677,24.9225852 C43.7163007,23.7667656 42.2899805,22.9722 39.9077842,22.9722 C36.0267429,22.9722 33.3186686,25.9159131 33.3186686,29.5086262 L33.3186686,29.5448967 C33.3186686,33.1733967 36.0804112,36.0445689 39.7994805,36.0445689 Z M47.1999063,35.8274295 L49.9795383,35.8274295 L49.9795383,30.7539131 L55.1070383,30.7539131 L55.1070383,35.8274295 L57.8866703,35.8274295 L57.8866703,23.1893393 L55.1070383,23.1893393 L55.1070383,28.191282 L49.9795383,28.191282 L49.9795383,23.1893393 L47.1999063,23.1893393 L47.1999063,35.8274295 Z M59.8351686,35.8274295 L65.2513172,23.0984213 L67.8148254,23.0984213 L73.2295234,35.8274295 L70.3232149,35.8274295 L69.1681373,32.9930115 L63.824997,32.9930115 L62.669436,35.8274295 L59.8351686,35.8274295 Z M64.8181026,30.537741 L68.1750317,30.537741 L66.4972924,26.4401426 L64.8181026,30.537741 Z M76.4960383,35.8274295 L76.4960383,25.7534213 L72.6507759,25.7534213 L72.6507759,23.1893393 L83.1194822,23.1893393 L83.1194822,25.7534213 L79.2756703,25.7534213 L79.2756703,35.8274295 L76.4960383,35.8274295 Z M88.1918634,35.8274295 L88.1918634,25.7534213 L84.347568,25.7534213 L84.347568,23.1893393 L94.8172413,23.1893393 L94.8172413,25.7534213 L90.9724624,25.7534213 L90.9724624,35.8274295 L88.1918634,35.8274295 Z M94.2375267,35.8274295 L99.6536752,23.0984213 L102.216217,23.0984213 L107.631882,35.8274295 L104.72654,35.8274295 L103.570979,32.9930115 L98.2273551,32.9930115 L97.0727611,35.8274295 L94.2375267,35.8274295 Z M99.2209442,30.537741 L102.577873,30.537741 L100.898683,26.4401426 L99.2209442,30.537741 Z M109.581347,35.8274295 L112.324717,35.8274295 L112.324717,27.7932738 L118.445322,35.8274295 L120.809146,35.8274295 L120.809146,23.1893393 L118.065776,23.1893393 L118.065776,30.9715361 L112.144372,23.1893393 L109.581347,23.1893393 L109.581347,35.8274295 Z M129.978692,36.0445689 C126.079761,36.0445689 123.28224,33.1376098 123.28224,29.5448967 L123.28224,29.5086262 C123.28224,25.9159131 126.11699,22.9722 130.015921,22.9722 C133.914852,22.9722 136.712373,25.8796426 136.712373,29.4718721 L136.712373,29.5086262 C136.712373,33.1023066 133.878106,36.0445689 129.978692,36.0445689 Z M130.015921,33.4804869 C132.253551,33.4804869 133.806065,31.7114541 133.806065,29.5448967 L133.806065,29.5086262 C133.806065,27.3425525 132.217773,25.536282 129.978692,25.536282 C127.741061,25.536282 126.188065,27.3053148 126.188065,29.4718721 L126.188065,29.5086262 C126.188065,31.6756672 127.776357,33.4804869 130.015921,33.4804869 Z M145.323479,36.0445689 C141.424065,36.0445689 138.625576,33.1376098 138.625576,29.5448967 L138.625576,29.5086262 C138.625576,25.9159131 141.459844,22.9722 145.359258,22.9722 C149.258188,22.9722 152.05571,25.8796426 152.05571,29.4718721 L152.05571,29.5086262 C152.05571,33.1023066 149.22241,36.0445689 145.323479,36.0445689 Z M145.359258,33.4804869 C147.596888,33.4804869 149.149885,31.7114541 149.149885,29.5448967 L149.149885,29.5086262 C149.149885,27.3425525 147.560626,25.536282 145.323479,25.536282 C143.084398,25.536282 141.531885,27.3053148 141.531885,29.4718721 L141.531885,29.5086262 C141.531885,31.6756672 143.120177,33.4804869 145.359258,33.4804869 Z M160.611697,36.0445689 C162.922335,36.0445689 164.709829,35.142159 166.009956,34.0400197 L166.009956,28.5515689 L160.52225,28.5515689 L160.52225,30.9536426 L163.319771,30.9536426 L163.319771,32.7579787 C162.615314,33.2643148 161.713106,33.5157902 160.702111,33.5157902 C158.46303,33.5157902 156.874738,31.8202656 156.874738,29.5086262 L156.874738,29.4718721 C156.874738,27.324659 158.48237,25.536282 160.50436,25.536282 C161.965976,25.536282 162.832405,26.0048967 163.806654,26.818323 L165.558852,24.7054459 C164.239868,23.5868639 162.868667,22.9722 160.593807,22.9722 C156.767401,22.9722 153.968429,25.9159131 153.968429,29.5086262 L153.968429,29.5448967 C153.968429,33.2822082 156.676987,36.0445689 160.611697,36.0445689 Z M167.598248,35.8274295 L173.012946,23.0984213 L175.576938,23.0984213 L180.991152,35.8274295 L178.085327,35.8274295 L176.93025,32.9930115 L171.587109,32.9930115 L170.431548,35.8274295 L167.598248,35.8274295 Z M172.580215,30.537741 L175.937144,30.537741 L174.258921,26.4401426 L172.580215,30.537741 Z" id="Fill-1"></path>
                        <path d="M1.43852805,12.9569016 L4.21767657,12.9569016 L4.21767657,0.317360656 L1.43852805,0.317360656 L1.43852805,12.9569016 Z M7.01519802,12.9569016 L9.75905116,12.9569016 L9.75905116,4.92371311 L15.8791733,12.9569016 L18.2434802,12.9569016 L18.2434802,0.319295082 L15.4996271,0.319295082 L15.4996271,8.1010082 L9.57918977,0.319295082 L7.01519802,0.319295082 L7.01519802,12.9569016 Z M21.6366716,12.9569016 L24.3800413,12.9569016 L24.3800413,4.92371311 L30.5006469,12.9569016 L32.8649538,12.9569016 L32.8649538,0.319295082 L30.1211007,0.319295082 L30.1211007,8.1010082 L24.2001799,0.319295082 L21.6366716,0.319295082 L21.6366716,12.9569016 Z M42.0340165,13.1750082 C45.9329472,13.1750082 48.7681815,10.2308115 48.7681815,6.63906557 L48.7681815,6.60182787 C48.7681815,3.00863115 45.9706601,0.101672131 42.0712459,0.101672131 C38.1723152,0.101672131 35.3375644,3.04586885 35.3375644,6.63906557 L35.3375644,6.67485246 C35.3375644,10.2680492 38.1355693,13.1750082 42.0340165,13.1750082 L42.0340165,13.1750082 Z M42.0712459,10.6104426 C39.832165,10.6104426 38.2438729,8.80562295 38.2438729,6.63906557 L38.2438729,6.60182787 C38.2438729,4.43527049 39.7963861,2.6662377 42.0340165,2.6662377 C44.2730974,2.6662377 45.8618729,4.47202459 45.8618729,6.63906557 L45.8618729,6.67485246 C45.8618729,8.84140984 44.3088762,10.6104426 42.0712459,10.6104426 L42.0712459,10.6104426 Z M54.4546056,13.0483033 L56.9102937,13.0483033 L62.0194208,0.319295082 L59.022698,0.319295082 L55.7189538,9.21959016 L52.4152096,0.319295082 L49.346929,0.319295082 L54.4546056,13.0483033 Z M61.078533,12.9569016 L63.9132838,12.9569016 L65.0683614,10.1234508 L70.4115017,10.1234508 L71.5665792,12.9569016 L74.4728878,12.9569016 L69.0572228,0.228377049 L66.493231,0.228377049 L61.078533,12.9569016 Z M66.0600165,7.66818033 L67.7392063,3.56816393 L69.4188795,7.66818033 L66.0600165,7.66818033 Z M77.7379521,12.9569016 L80.5175842,12.9569016 L80.5175842,2.88337705 L84.3628465,2.88337705 L84.3628465,0.319295082 L73.8926898,0.319295082 L73.8926898,2.88337705 L77.7379521,2.88337705 L77.7379521,12.9569016 Z M86.9800231,12.9569016 L89.7596551,12.9569016 L89.7596551,0.317360656 L86.9800231,0.317360656 L86.9800231,12.9569016 Z M98.6951881,13.1750082 C102.594602,13.1750082 105.42887,10.2308115 105.42887,6.63906557 L105.42887,6.60182787 C105.42887,3.00863115 102.629898,0.101672131 98.7314505,0.101672131 C94.8320363,0.101672131 91.998736,3.04586885 91.998736,6.63906557 L91.998736,6.67485246 C91.998736,10.2680492 94.7962574,13.1750082 98.6951881,13.1750082 L98.6951881,13.1750082 Z M98.7314505,10.6104426 C96.4933366,10.6104426 94.9050446,8.80562295 94.9050446,6.63906557 L94.9050446,6.60182787 C94.9050446,4.43527049 96.4580413,2.6662377 98.6951881,2.6662377 C100.934269,2.6662377 102.522561,4.47202459 102.522561,6.63906557 L102.522561,6.67485246 C102.522561,8.84140984 100.970531,10.6104426 98.7314505,10.6104426 L98.7314505,10.6104426 Z M107.90148,12.9569016 L110.645333,12.9569016 L110.645333,4.92371311 L116.764972,12.9569016 L119.130246,12.9569016 L119.130246,0.319295082 L116.386393,0.319295082 L116.386393,8.1010082 L110.465472,0.319295082 L107.90148,0.319295082 L107.90148,12.9569016 Z M127.577446,12.9569016 L132.505261,12.9569016 C136.475749,12.9569016 139.219602,10.1950246 139.219602,6.63906557 L139.219602,6.60182787 C139.219602,3.04586885 136.475749,0.319295082 132.505261,0.319295082 L127.577446,0.319295082 L127.577446,12.9569016 Z M130.357078,10.4479508 L130.357078,2.8282459 L132.505261,2.8282459 C134.78012,2.8282459 136.313294,4.39948361 136.313294,6.63906557 L136.313294,6.67485246 C136.313294,8.91298361 134.78012,10.4479508 132.505261,10.4479508 L130.357078,10.4479508 Z M141.818889,12.9569016 L144.598521,12.9569016 L144.598521,0.317360656 L141.818889,0.317360656 L141.818889,12.9569016 Z M152.253751,13.1387377 C154.978264,13.1387377 156.892917,11.7299918 156.892917,9.21959016 L156.892917,9.18428689 C156.892917,6.98145902 155.448708,6.06163934 152.8852,5.39281148 C150.700754,4.83279508 150.159236,4.56197541 150.159236,3.73065574 L150.159236,3.69486885 C150.159236,3.08117213 150.718644,2.59466393 151.783307,2.59466393 C152.848937,2.59466393 153.949863,3.06327869 155.069162,3.83946721 L156.512888,1.74593443 C155.231134,0.716819672 153.660731,0.138909836 151.820053,0.138909836 C149.239139,0.138909836 147.397493,1.65501639 147.397493,3.94779508 L147.397493,3.98406557 C147.397493,6.49446721 149.039454,7.19714754 151.585073,7.84808197 C153.697477,8.39020492 154.131175,8.7504918 154.131175,9.45462295 L154.131175,9.49040984 C154.131175,10.2308115 153.445091,10.6834672 152.307419,10.6834672 C150.86321,10.6834672 149.672353,10.0862131 148.534682,9.14801639 L146.891271,11.1167787 C148.408488,12.4703934 150.339097,13.1387377 152.253751,13.1387377 L152.253751,13.1387377 Z M161.984155,12.9569016 L164.765238,12.9569016 L164.765238,2.88337705 L168.60905,2.88337705 L168.60905,0.319295082 L158.140343,0.319295082 L158.140343,2.88337705 L161.984155,2.88337705 L161.984155,12.9569016 Z M170.739343,12.9569016 L173.518975,12.9569016 L173.518975,8.91298361 L175.667642,8.91298361 L175.703421,8.91298361 L178.411012,12.9569016 L181.661087,12.9569016 L178.573467,8.44388525 C180.180132,7.84808197 181.281541,6.56652459 181.281541,4.52618852 L181.281541,4.49040164 C181.281541,3.29782787 180.901995,2.30595082 180.198021,1.60133607 C179.368338,0.7705 178.122363,0.319295082 176.516182,0.319295082 L170.739343,0.319295082 L170.739343,12.9569016 Z M173.518975,6.45722951 L173.518975,2.8282459 L176.280718,2.8282459 C177.63548,2.8282459 178.465163,3.44194262 178.465163,4.63451639 L178.465163,4.67078689 C178.465163,5.73520492 177.689149,6.45722951 176.335837,6.45722951 L173.518975,6.45722951 Z M183.916607,12.9569016 L186.696239,12.9569016 L186.696239,0.317360656 L183.916607,0.317360656 L183.916607,12.9569016 Z M195.776338,13.1750082 C198.213653,13.1750082 199.65738,12.3083852 200.957023,10.9175328 L199.188386,9.13012295 C198.195281,10.0325328 197.310962,10.6104426 195.867236,10.6104426 C193.701163,10.6104426 192.201835,8.80562295 192.201835,6.63906557 L192.201835,6.60182787 C192.201835,4.43527049 193.736942,2.6662377 195.867236,2.6662377 C197.130617,2.6662377 198.122756,3.20787705 199.097972,4.09239344 L200.866609,2.05302459 C199.693158,0.897204918 198.266838,0.101672131 195.884642,0.101672131 C192.003601,0.101672131 189.295526,3.04586885 189.295526,6.63906557 L189.295526,6.67485246 C189.295526,10.3038361 192.057269,13.1750082 195.776338,13.1750082 L195.776338,13.1750082 Z M206.120302,12.9569016 L208.89945,12.9569016 L208.89945,2.88337705 L212.745196,2.88337705 L212.745196,0.319295082 L202.274556,0.319295082 L202.274556,2.88337705 L206.120302,2.88337705 L206.120302,12.9569016 Z" id="Fill-3"></path>
                    </g>
                </g>
                <g id="logo-mark" transform="translate(0.000000, -1.000000)">
                    <path d="M30.4596529,60.9896023 L27.2917985,60.9896023 L24.2804734,60.9896023 L24.2804734,56.9622159 L30.3031237,56.9622159 C30.7200381,56.9622159 31.1329773,56.943401 31.5449226,56.924586 C31.6855505,56.9196347 31.8261784,56.9151786 31.9668062,56.9072565 C44.083166,56.1442614 53.9877423,47.1086364 56.0683394,35.4017857 C56.0743024,35.3681169 56.0782777,35.3349432 56.0842408,35.3012744 C56.1607662,34.8601136 56.2248686,34.4144968 56.2790327,33.965414 C56.3053694,33.7435958 56.3232585,33.5227679 56.3436321,33.3014448 C56.3714596,33.0078328 56.4007777,32.715211 56.4191637,32.4191234 C56.435562,32.1482873 56.4400343,31.8794318 56.447985,31.6100812 C56.4559357,31.3466721 56.4668679,31.0842532 56.4668679,30.8183685 C56.4668679,30.5529789 56.4559357,30.2895698 56.447985,30.0256656 C56.4400343,29.7568101 56.435562,29.4884497 56.4191637,29.2176136 C56.4007777,28.9220211 56.3714596,28.6289042 56.3436321,28.3357873 C56.3232585,28.1144643 56.3053694,27.8931412 56.2790327,27.6708279 C56.2248686,27.2227354 56.1607662,26.7776136 56.0842408,26.3359578 C56.0782777,26.302289 56.0743024,26.268125 56.0683394,26.2344562 C53.9877423,14.5285958 44.083166,5.49148539 31.9668062,4.72849026 C31.8261784,4.72155844 31.6855505,4.7175974 31.5449226,4.71215097 C31.1329773,4.69284091 30.7200381,4.67501623 30.3031237,4.67501623 L24.2804734,4.67501623 L24.2804734,0.64663961 L30.3031237,0.64663961 L30.6161822,0.64663961 C30.9371914,0.64663961 31.2537284,0.675357143 31.5742408,0.68476461 C31.8008355,0.694667208 32.029418,0.697637987 32.254522,0.711996753 C44.5298956,1.3774513 55.3865674,9.42974838 59.0329542,21.2603815 C59.648636,23.2572403 60.0575998,25.2367695 60.2856853,27.1860958 C60.3020836,27.3182955 60.3080466,27.4544562 60.3224572,27.587151 C60.3706583,28.0515828 60.4183625,28.5145292 60.4466868,28.9740097 C60.4650728,29.2978247 60.4675574,29.6256006 60.4769988,29.9518912 C60.4849495,30.2405519 60.5013478,30.5311932 60.5013478,30.8183685 C60.5013478,31.1055438 60.4849495,31.3961851 60.4769988,31.6848458 C60.4675574,32.0106412 60.4650728,32.3389123 60.4466868,32.661737 C60.4183625,33.1222078 60.3706583,33.5871347 60.3224572,34.0510714 C60.3080466,34.1837662 60.3015867,34.3184416 60.2856853,34.4506412 C60.0575998,36.3999675 59.648636,38.3794968 59.0329542,40.3763555 C55.3865674,52.2059984 44.5298956,60.2597808 32.254522,60.9242451 C32.029418,60.9386039 31.8008355,60.9425649 31.5742408,60.9514773 C31.2537284,60.961875 30.9371914,60.9896023 30.6161822,60.9896023 L30.4596529,60.9896023 Z M30.6395374,52.9343344 L24.2804734,52.9343344 L24.2804734,48.9064529 L30.3031237,48.9064529 C39.3684049,48.9064529 46.8952269,42.2137825 48.2031159,33.5143506 C48.2205081,33.3970049 48.2379002,33.2786688 48.2528078,33.1613231 C48.281629,32.9424756 48.3034935,32.7216477 48.324364,32.5018101 C48.3412592,32.3210877 48.355173,32.1413555 48.3661052,31.9611282 C48.3785281,31.7714935 48.3864788,31.5823539 48.3929388,31.3907386 C48.3989018,31.1986282 48.4018833,31.0084984 48.4018833,30.8183685 C48.4018833,30.6287338 48.3989018,30.4371185 48.3929388,30.2459984 C48.3864788,30.0553734 48.3785281,29.8647484 48.3661052,29.6751136 C48.355173,29.4958766 48.3412592,29.3161445 48.324364,29.1354221 C48.3034935,28.914099 48.281629,28.6942614 48.2528078,28.4749188 C48.2379002,28.3580682 48.2205081,28.2397321 48.2031159,28.1218912 C46.8952269,19.4234497 39.3684049,12.7302841 30.3031237,12.7302841 L24.2804734,12.7302841 L24.2804734,8.7024026 L30.3031237,8.7024026 L30.6395374,8.7024026 C39.7043216,8.7024026 47.9670797,14.2602354 51.014183,22.7888474 C51.5771914,24.3663312 51.957334,25.9329221 52.1849226,27.4777273 C52.2052962,27.6143831 52.2211976,27.7545049 52.2390867,27.8926461 C52.2768525,28.1832873 52.3146183,28.4724432 52.3409549,28.7611039 C52.3613286,28.9834172 52.3732546,29.2082062 52.3871683,29.4315097 C52.401082,29.6632305 52.4174804,29.893961 52.4239403,30.1237013 C52.431891,30.3539367 52.4294064,30.5866477 52.4294064,30.8183685 C52.4294064,31.0500893 52.431891,31.2828003 52.4239403,31.5130357 C52.4174804,31.7422808 52.401082,31.9740016 52.3871683,32.2047321 C52.3732546,32.429026 52.3613286,32.6533198 52.3409549,32.8756331 C52.3146183,33.1633036 52.2768525,33.4534497 52.2390867,33.7435958 C52.2211976,33.8822321 52.2052962,34.0213636 52.1849226,34.16 C51.957334,35.7038149 51.5771914,37.2694156 51.014183,38.8478896 C47.9670797,47.3765016 39.7043216,52.9343344 30.6395374,52.9343344 Z M30.690223,44.8790666 L24.2804734,44.8790666 L24.2804734,44.8785714 L24.2804734,40.8506899 L30.3031237,40.8506899 C35.0183817,40.8506899 38.9728579,37.5838231 40.0471953,33.1994481 C40.0760166,33.0741802 40.1117947,32.9484172 40.1361437,32.8236445 C40.1833509,32.5904383 40.213166,32.3507955 40.2449688,32.112638 C40.2713055,31.8972565 40.298636,31.6823701 40.3115559,31.4694643 C40.3254696,31.2545779 40.3269603,31.0372159 40.3279542,30.8183685 C40.3269603,30.6000162 40.3254696,30.3821591 40.3115559,30.1667776 C40.298636,29.9538718 40.2713055,29.7394805 40.2449688,29.5236039 C40.213166,29.2854464 40.1833509,29.0462987 40.1361437,28.8140828 C40.1117947,28.6888149 40.0760166,28.5625568 40.0471953,28.4367938 C38.971864,24.0534091 35.0183817,20.7860471 30.3046144,20.7860471 L24.2804734,20.7860471 L24.2804734,20.7850568 L24.2804734,16.7576705 L30.3031237,16.7576705 L30.690223,16.7576705 C36.0117215,16.7576705 40.9550651,19.8076705 43.0659742,24.6881656 C43.462515,25.6061364 43.7323417,26.5186607 43.9460166,27.4242532 C43.9947146,27.6193344 44.0384434,27.8144156 44.0791907,28.0124675 C44.1447839,28.3471753 44.1984511,28.6794075 44.2396953,29.0116396 C44.277958,29.3102029 44.3072762,29.6097565 44.3271529,29.9137662 C44.3460358,30.217776 44.3554773,30.5183198 44.3554773,30.8183685 C44.3554773,31.1179221 44.3460358,31.4194562 44.3271529,31.7229708 C44.3072762,32.0269805 44.277958,32.3270292 44.2396953,32.6250974 C44.1984511,32.9568344 44.1447839,33.2895617 44.0791907,33.6247646 C44.0384434,33.8223214 43.9947146,34.0174026 43.9460166,34.2119886 C43.7323417,35.1180763 43.462515,36.0296104 43.0659742,36.9480763 C40.9550651,41.8290666 36.0117215,44.8790666 30.690223,44.8790666 Z" id="Fill-1" fill="#FFFFFF"></path>
                    <polygon id="Fill-3" fill="#FFD13F" points="-0.000198767336 0.495377435 -0.000198767336 60.9106291 20.1881025 60.9106291"></polygon>
                    <path d="M0,4.58787338 L20.1883012,4.58787338 L20.1883012,0.564448052 L0,0.564448052 L0,4.58787338 Z M0,12.6337338 L20.1883012,12.6337338 L20.1883012,8.61030844 L0,8.61030844 L0,12.6337338 Z M0,20.6795942 L20.1883012,20.6795942 L20.1883012,16.6561688 L0,16.6561688 L0,20.6795942 Z M0,28.7264448 L20.1883012,28.7264448 L20.1883012,24.7025244 L0,24.7025244 L0,28.7264448 Z M0,36.7723052 L20.1883012,36.7723052 L20.1883012,32.7483847 L0,32.7483847 L0,36.7723052 Z M0,44.8181656 L20.1883012,44.8181656 L20.1883012,40.7942451 L0,40.7942451 L0,44.8181656 Z M0,52.8645211 L20.1883012,52.8645211 L20.1883012,48.8406006 L0,48.8406006 L0,52.8645211 Z M0,60.9103815 L20.1883012,60.9103815 L20.1883012,56.8874513 L0,56.8874513 L0,60.9103815 Z" id="Fill-6" fill="#3BB0C9"></path>
                    <path d="M60.5015466,30.6837922 L60.5015466,30.6837922 C60.5015466,30.7065682 60.5030374,30.7283539 60.5030374,30.7506347 L24.2801753,30.751625 L24.2801753,0.495228896 L30.6153871,0.495228896 C43.5556375,0.495228896 55.2252677,8.75300487 59.0341468,21.1089708 C59.8759264,23.8420877 60.334582,26.5435162 60.4612962,29.1766169 C60.4617931,29.1889951 60.4632839,29.2013734 60.4632839,29.2137516 C60.4861421,29.7064058 60.5015466,30.1970795 60.5015466,30.6837922" id="Fill-8" fill="#F7323F"></path>
                </g>
            </g>
        </g>
    </g>
</svg>