<?xml version="1.0" encoding="UTF-8"?>
<svg width="20px" height="21px" viewBox="0 0 20 21" version="1.1" xmlns="http://www.w3.org/2000/svg" xmlns:xlink="http://www.w3.org/1999/xlink">
    <!-- Generator: Sketch 43.2 (39069) - http://www.bohemiancoding.com/sketch -->
    <title>ID-end-mark</title>
    <desc>Created with Sketch.</desc>
    <defs></defs>
    <g id="SIte-Pages" stroke="none" stroke-width="1" fill="none" fill-rule="evenodd">
        <g id="/community/post-title/" transform="translate(-733.000000, -2052.000000)">
            <g id="ID-end-mark" transform="translate(733.000000, 2052.000000)">
                <path d="M10.0487049,20.1932787 L9.00362295,20.1932787 L8.01018033,20.1932787 L8.01018033,18.8598361 L9.99706557,18.8598361 C10.1346066,18.8598361 10.2708361,18.8536066 10.4067377,18.847377 C10.4531311,18.8457377 10.4995246,18.8442623 10.545918,18.8416393 C14.5431311,18.5890164 17.8106721,15.597377 18.4970656,11.7213115 C18.4990328,11.7101639 18.5003443,11.6991803 18.5023115,11.6880328 C18.5275574,11.5419672 18.5487049,11.3944262 18.5665738,11.2457377 C18.5752623,11.1722951 18.5811639,11.0991803 18.5878852,11.0259016 C18.5970656,10.9286885 18.6067377,10.8318033 18.6128033,10.7337705 C18.6182131,10.6440984 18.6196885,10.555082 18.6223115,10.4659016 C18.6249344,10.3786885 18.628541,10.2918033 18.628541,10.2037705 C18.628541,10.1159016 18.6249344,10.0286885 18.6223115,9.94131148 C18.6196885,9.85229508 18.6182131,9.76344262 18.6128033,9.67377049 C18.6067377,9.57590164 18.5970656,9.47885246 18.5878852,9.38180328 C18.5811639,9.30852459 18.5752623,9.2352459 18.5665738,9.16163934 C18.5487049,9.01327869 18.5275574,8.86590164 18.5023115,8.71967213 C18.5003443,8.70852459 18.4990328,8.69721311 18.4970656,8.68606557 C17.8106721,4.81032787 14.5431311,1.81819672 10.545918,1.56557377 C10.4995246,1.56327869 10.4531311,1.56196721 10.4067377,1.56016393 C10.2708361,1.55377049 10.1346066,1.54786885 9.99706557,1.54786885 L8.01018033,1.54786885 L8.01018033,0.214098361 L9.99706557,0.214098361 L10.1003443,0.214098361 C10.2062459,0.214098361 10.3106721,0.223606557 10.4164098,0.226721311 C10.4911639,0.23 10.5665738,0.230983607 10.6408361,0.235737705 C14.6905082,0.456065574 18.2721475,3.12213115 19.4750984,7.03918033 C19.6782131,7.70032787 19.8131311,8.3557377 19.888377,9.00114754 C19.8937869,9.04491803 19.8957541,9.09 19.9005082,9.13393443 C19.9164098,9.28770492 19.9321475,9.44098361 19.9414918,9.59311475 C19.9475574,9.70032787 19.948377,9.80885246 19.9514918,9.91688525 C19.9541148,10.012459 19.9595246,10.1086885 19.9595246,10.2037705 C19.9595246,10.2988525 19.9541148,10.395082 19.9514918,10.4906557 C19.948377,10.5985246 19.9475574,10.7072131 19.9414918,10.8140984 C19.9321475,10.9665574 19.9164098,11.1204918 19.9005082,11.2740984 C19.8957541,11.3180328 19.893623,11.362623 19.888377,11.4063934 C19.8131311,12.0518033 19.6782131,12.7072131 19.4750984,13.3683607 C18.2721475,17.285082 14.6905082,19.9516393 10.6408361,20.1716393 C10.5665738,20.1763934 10.4911639,20.1777049 10.4164098,20.1806557 C10.3106721,20.1840984 10.2062459,20.1932787 10.1003443,20.1932787 L10.0487049,20.1932787 Z M10.1080492,17.5262295 L8.01018033,17.5262295 L8.01018033,16.192623 L9.99706557,16.192623 C12.9877213,16.192623 15.4708361,13.9767213 15.9023115,11.0963934 C15.9080492,11.057541 15.9137869,11.0183607 15.9187049,10.9795082 C15.9282131,10.9070492 15.9354262,10.8339344 15.9423115,10.7611475 C15.9478852,10.7013115 15.9524754,10.6418033 15.956082,10.5821311 C15.9601803,10.5193443 15.9628033,10.4567213 15.9649344,10.3932787 C15.9669016,10.3296721 15.9678852,10.2667213 15.9678852,10.2037705 C15.9678852,10.1409836 15.9669016,10.077541 15.9649344,10.0142623 C15.9628033,9.95114754 15.9601803,9.88803279 15.956082,9.8252459 C15.9524754,9.76590164 15.9478852,9.70639344 15.9423115,9.64655738 C15.9354262,9.57327869 15.9282131,9.5004918 15.9187049,9.42786885 C15.9137869,9.38918033 15.9080492,9.35 15.9023115,9.31098361 C15.4708361,6.43098361 12.9877213,4.21491803 9.99706557,4.21491803 L8.01018033,4.21491803 L8.01018033,2.88131148 L9.99706557,2.88131148 L10.1080492,2.88131148 C13.098541,2.88131148 15.8244426,4.72147541 16.8296885,7.5452459 C17.0154262,8.06754098 17.1408361,8.58622951 17.215918,9.09770492 C17.2226393,9.14295082 17.2278852,9.18934426 17.2337869,9.23508197 C17.2462459,9.33131148 17.2587049,9.42704918 17.2673934,9.52262295 C17.2741148,9.59622951 17.2780492,9.67065574 17.2826393,9.74459016 C17.2872295,9.82131148 17.2926393,9.89770492 17.2947705,9.97377049 C17.2973934,10.05 17.2965738,10.1270492 17.2965738,10.2037705 C17.2965738,10.2804918 17.2973934,10.357541 17.2947705,10.4337705 C17.2926393,10.5096721 17.2872295,10.5863934 17.2826393,10.6627869 C17.2780492,10.7370492 17.2741148,10.8113115 17.2673934,10.884918 C17.2587049,10.9801639 17.2462459,11.0762295 17.2337869,11.1722951 C17.2278852,11.2181967 17.2226393,11.2642623 17.215918,11.3101639 C17.1408361,11.8213115 17.0154262,12.3396721 16.8296885,12.8622951 C15.8244426,15.6860656 13.098541,17.5262295 10.1080492,17.5262295 Z M10.1247705,14.8591803 L8.01018033,14.8591803 L8.01018033,14.8590164 L8.01018033,13.5254098 L9.99706557,13.5254098 C11.5526393,13.5254098 12.8572295,12.4437705 13.2116557,10.9921311 C13.2211639,10.9506557 13.2329672,10.9090164 13.241,10.8677049 C13.2565738,10.7904918 13.2664098,10.7111475 13.2769016,10.6322951 C13.2855902,10.5609836 13.2946066,10.4898361 13.2988689,10.4193443 C13.303459,10.3481967 13.3039508,10.2762295 13.3042787,10.2037705 C13.3039508,10.1314754 13.303459,10.0593443 13.2988689,9.98803279 C13.2946066,9.91754098 13.2855902,9.84655738 13.2769016,9.77508197 C13.2664098,9.69622951 13.2565738,9.61704918 13.241,9.54016393 C13.2329672,9.49868852 13.2211639,9.45688525 13.2116557,9.4152459 C12.8569016,7.96393443 11.5526393,6.88213115 9.99755738,6.88213115 L8.01018033,6.88213115 L8.01018033,6.88180328 L8.01018033,5.54836066 L9.99706557,5.54836066 L10.1247705,5.54836066 C11.8803443,5.54836066 13.5111639,6.55819672 14.2075574,8.17409836 C14.338377,8.47803279 14.4273934,8.78016393 14.4978852,9.08 C14.5139508,9.14459016 14.528377,9.20918033 14.5418197,9.2747541 C14.563459,9.38557377 14.5811639,9.49557377 14.5947705,9.60557377 C14.6073934,9.70442623 14.6170656,9.80360656 14.623623,9.9042623 C14.6298525,10.004918 14.6329672,10.1044262 14.6329672,10.2037705 C14.6329672,10.3029508 14.6298525,10.4027869 14.623623,10.5032787 C14.6170656,10.6039344 14.6073934,10.7032787 14.5947705,10.8019672 C14.5811639,10.9118033 14.563459,11.0219672 14.5418197,11.1329508 C14.528377,11.1983607 14.5139508,11.2629508 14.4978852,11.327377 C14.4273934,11.627377 14.338377,11.9291803 14.2075574,12.2332787 C13.5111639,13.8493443 11.8803443,14.8591803 10.1247705,14.8591803 Z" id="Fill-1" fill="#3B3D40"></path>
                <polygon id="Fill-3" fill="#FFD13F" points="-6.55737713e-05 0.164016393 -6.55737713e-05 20.1671311 6.66009836 20.1671311"></polygon>
                <path d="M0,1.51901639 L6.66016393,1.51901639 L6.66016393,0.186885246 L0,0.186885246 L0,1.51901639 Z M0,4.18295082 L6.66016393,4.18295082 L6.66016393,2.85081967 L0,2.85081967 L0,4.18295082 Z M0,6.84688525 L6.66016393,6.84688525 L6.66016393,5.5147541 L0,5.5147541 L0,6.84688525 Z M0,9.51114754 L6.66016393,9.51114754 L6.66016393,8.17885246 L0,8.17885246 L0,9.51114754 Z M0,12.175082 L6.66016393,12.175082 L6.66016393,10.8427869 L0,10.8427869 L0,12.175082 Z M0,14.8390164 L6.66016393,14.8390164 L6.66016393,13.5067213 L0,13.5067213 L0,14.8390164 Z M0,17.5031148 L6.66016393,17.5031148 L6.66016393,16.1708197 L0,16.1708197 L0,17.5031148 Z M0,20.1670492 L6.66016393,20.1670492 L6.66016393,18.835082 L0,18.835082 L0,20.1670492 Z" id="Fill-6" fill="#3BB0C9"></path>
                <path d="M19.9595902,10.1592131 L19.9595902,10.1592131 C19.9595902,10.1667541 19.960082,10.1739672 19.960082,10.1813443 L8.01008197,10.1816721 L8.01008197,0.163967213 L10.100082,0.163967213 C14.3690984,0.163967213 18.2189344,2.89806557 19.4754918,6.98904918 C19.7531967,7.89396721 19.9045082,8.78839344 19.9463115,9.66019672 C19.9464754,9.66429508 19.9469672,9.66839344 19.9469672,9.6724918 C19.9545082,9.83560656 19.9595902,9.99806557 19.9595902,10.1592131" id="Fill-8" fill="#F7323F"></path>
            </g>
        </g>
    </g>
</svg>