<?xml version="1.0" encoding="UTF-8"?>
<svg width="213px" height="37px" viewBox="0 0 213 37" version="1.1" xmlns="http://www.w3.org/2000/svg" xmlns:xlink="http://www.w3.org/1999/xlink">
    <!-- Generator: Sketch 43.2 (39069) - http://www.bohemiancoding.com/sketch -->
    <title>logo-words</title>
    <desc>Created with Sketch.</desc>
    <defs></defs>
    <g id="Symbols" stroke="none" stroke-width="1" fill="none" fill-rule="evenodd">
        <g id="ID-/-logo/-white" transform="translate(-80.000000, -11.000000)" fill="#FFFFFF">
            <g id="ID-/-logo/-grey">
                <g id="logo-words" transform="translate(80.000000, 11.000000)">
                    <path d="M7.41572805,36.0445689 C3.51679736,36.0445689 0.718792409,33.1376098 0.718792409,29.5448967 L0.718792409,29.5086262 C0.718792409,25.9159131 3.55257624,22.9722 7.45102343,22.9722 C11.3504376,22.9722 14.1494096,25.8796426 14.1494096,29.4718721 L14.1494096,29.5086262 C14.1494096,33.1023066 11.3146587,36.0445689 7.41572805,36.0445689 Z M7.45102343,33.4804869 C9.69058779,33.4804869 11.243101,31.7114541 11.243101,29.5448967 L11.243101,29.5086262 C11.243101,27.3425525 9.65480891,25.536282 7.41572805,25.536282 C5.17664719,25.536282 3.62510099,27.3053148 3.62510099,29.4718721 L3.62510099,29.5086262 C3.62510099,31.6756672 5.21339307,33.4804869 7.45102343,33.4804869 Z M16.6220201,35.8274295 L19.4016521,35.8274295 L19.4016521,30.9357492 L25.4313601,30.9357492 L25.4313601,28.4069705 L19.4016521,28.4069705 L19.4016521,25.7166672 L26.2421868,25.7166672 L26.2421868,23.1893393 L16.6220201,23.1893393 L16.6220201,35.8274295 Z M39.7994805,36.0445689 C42.2367957,36.0445689 43.6805218,35.1779459 44.9801653,33.7870934 L43.2100779,32.0001672 C42.2184228,32.902577 41.3326538,33.4804869 39.8884442,33.4804869 C37.7228551,33.4804869 36.2249772,31.6756672 36.2249772,29.5086262 L36.2249772,29.4718721 C36.2249772,27.3053148 37.759601,25.536282 39.8884442,25.536282 C41.1523089,25.536282 42.1454145,26.0784049 43.1211142,26.9629213 L44.8892677,24.9225852 C43.7163007,23.7667656 42.2899805,22.9722 39.9077842,22.9722 C36.0267429,22.9722 33.3186686,25.9159131 33.3186686,29.5086262 L33.3186686,29.5448967 C33.3186686,33.1733967 36.0804112,36.0445689 39.7994805,36.0445689 Z M47.1999063,35.8274295 L49.9795383,35.8274295 L49.9795383,30.7539131 L55.1070383,30.7539131 L55.1070383,35.8274295 L57.8866703,35.8274295 L57.8866703,23.1893393 L55.1070383,23.1893393 L55.1070383,28.191282 L49.9795383,28.191282 L49.9795383,23.1893393 L47.1999063,23.1893393 L47.1999063,35.8274295 Z M59.8351686,35.8274295 L65.2513172,23.0984213 L67.8148254,23.0984213 L73.2295234,35.8274295 L70.3232149,35.8274295 L69.1681373,32.9930115 L63.824997,32.9930115 L62.669436,35.8274295 L59.8351686,35.8274295 Z M64.8181026,30.537741 L68.1750317,30.537741 L66.4972924,26.4401426 L64.8181026,30.537741 Z M76.4960383,35.8274295 L76.4960383,25.7534213 L72.6507759,25.7534213 L72.6507759,23.1893393 L83.1194822,23.1893393 L83.1194822,25.7534213 L79.2756703,25.7534213 L79.2756703,35.8274295 L76.4960383,35.8274295 Z M88.1918634,35.8274295 L88.1918634,25.7534213 L84.347568,25.7534213 L84.347568,23.1893393 L94.8172413,23.1893393 L94.8172413,25.7534213 L90.9724624,25.7534213 L90.9724624,35.8274295 L88.1918634,35.8274295 Z M94.2375267,35.8274295 L99.6536752,23.0984213 L102.216217,23.0984213 L107.631882,35.8274295 L104.72654,35.8274295 L103.570979,32.9930115 L98.2273551,32.9930115 L97.0727611,35.8274295 L94.2375267,35.8274295 Z M99.2209442,30.537741 L102.577873,30.537741 L100.898683,26.4401426 L99.2209442,30.537741 Z M109.581347,35.8274295 L112.324717,35.8274295 L112.324717,27.7932738 L118.445322,35.8274295 L120.809146,35.8274295 L120.809146,23.1893393 L118.065776,23.1893393 L118.065776,30.9715361 L112.144372,23.1893393 L109.581347,23.1893393 L109.581347,35.8274295 Z M129.978692,36.0445689 C126.079761,36.0445689 123.28224,33.1376098 123.28224,29.5448967 L123.28224,29.5086262 C123.28224,25.9159131 126.11699,22.9722 130.015921,22.9722 C133.914852,22.9722 136.712373,25.8796426 136.712373,29.4718721 L136.712373,29.5086262 C136.712373,33.1023066 133.878106,36.0445689 129.978692,36.0445689 Z M130.015921,33.4804869 C132.253551,33.4804869 133.806065,31.7114541 133.806065,29.5448967 L133.806065,29.5086262 C133.806065,27.3425525 132.217773,25.536282 129.978692,25.536282 C127.741061,25.536282 126.188065,27.3053148 126.188065,29.4718721 L126.188065,29.5086262 C126.188065,31.6756672 127.776357,33.4804869 130.015921,33.4804869 Z M145.323479,36.0445689 C141.424065,36.0445689 138.625576,33.1376098 138.625576,29.5448967 L138.625576,29.5086262 C138.625576,25.9159131 141.459844,22.9722 145.359258,22.9722 C149.258188,22.9722 152.05571,25.8796426 152.05571,29.4718721 L152.05571,29.5086262 C152.05571,33.1023066 149.22241,36.0445689 145.323479,36.0445689 Z M145.359258,33.4804869 C147.596888,33.4804869 149.149885,31.7114541 149.149885,29.5448967 L149.149885,29.5086262 C149.149885,27.3425525 147.560626,25.536282 145.323479,25.536282 C143.084398,25.536282 141.531885,27.3053148 141.531885,29.4718721 L141.531885,29.5086262 C141.531885,31.6756672 143.120177,33.4804869 145.359258,33.4804869 Z M160.611697,36.0445689 C162.922335,36.0445689 164.709829,35.142159 166.009956,34.0400197 L166.009956,28.5515689 L160.52225,28.5515689 L160.52225,30.9536426 L163.319771,30.9536426 L163.319771,32.7579787 C162.615314,33.2643148 161.713106,33.5157902 160.702111,33.5157902 C158.46303,33.5157902 156.874738,31.8202656 156.874738,29.5086262 L156.874738,29.4718721 C156.874738,27.324659 158.48237,25.536282 160.50436,25.536282 C161.965976,25.536282 162.832405,26.0048967 163.806654,26.818323 L165.558852,24.7054459 C164.239868,23.5868639 162.868667,22.9722 160.593807,22.9722 C156.767401,22.9722 153.968429,25.9159131 153.968429,29.5086262 L153.968429,29.5448967 C153.968429,33.2822082 156.676987,36.0445689 160.611697,36.0445689 Z M167.598248,35.8274295 L173.012946,23.0984213 L175.576938,23.0984213 L180.991152,35.8274295 L178.085327,35.8274295 L176.93025,32.9930115 L171.587109,32.9930115 L170.431548,35.8274295 L167.598248,35.8274295 Z M172.580215,30.537741 L175.937144,30.537741 L174.258921,26.4401426 L172.580215,30.537741 Z" id="Fill-1"></path>
                    <path d="M1.43852805,12.9569016 L4.21767657,12.9569016 L4.21767657,0.317360656 L1.43852805,0.317360656 L1.43852805,12.9569016 Z M7.01519802,12.9569016 L9.75905116,12.9569016 L9.75905116,4.92371311 L15.8791733,12.9569016 L18.2434802,12.9569016 L18.2434802,0.319295082 L15.4996271,0.319295082 L15.4996271,8.1010082 L9.57918977,0.319295082 L7.01519802,0.319295082 L7.01519802,12.9569016 Z M21.6366716,12.9569016 L24.3800413,12.9569016 L24.3800413,4.92371311 L30.5006469,12.9569016 L32.8649538,12.9569016 L32.8649538,0.319295082 L30.1211007,0.319295082 L30.1211007,8.1010082 L24.2001799,0.319295082 L21.6366716,0.319295082 L21.6366716,12.9569016 Z M42.0340165,13.1750082 C45.9329472,13.1750082 48.7681815,10.2308115 48.7681815,6.63906557 L48.7681815,6.60182787 C48.7681815,3.00863115 45.9706601,0.101672131 42.0712459,0.101672131 C38.1723152,0.101672131 35.3375644,3.04586885 35.3375644,6.63906557 L35.3375644,6.67485246 C35.3375644,10.2680492 38.1355693,13.1750082 42.0340165,13.1750082 L42.0340165,13.1750082 Z M42.0712459,10.6104426 C39.832165,10.6104426 38.2438729,8.80562295 38.2438729,6.63906557 L38.2438729,6.60182787 C38.2438729,4.43527049 39.7963861,2.6662377 42.0340165,2.6662377 C44.2730974,2.6662377 45.8618729,4.47202459 45.8618729,6.63906557 L45.8618729,6.67485246 C45.8618729,8.84140984 44.3088762,10.6104426 42.0712459,10.6104426 L42.0712459,10.6104426 Z M54.4546056,13.0483033 L56.9102937,13.0483033 L62.0194208,0.319295082 L59.022698,0.319295082 L55.7189538,9.21959016 L52.4152096,0.319295082 L49.346929,0.319295082 L54.4546056,13.0483033 Z M61.078533,12.9569016 L63.9132838,12.9569016 L65.0683614,10.1234508 L70.4115017,10.1234508 L71.5665792,12.9569016 L74.4728878,12.9569016 L69.0572228,0.228377049 L66.493231,0.228377049 L61.078533,12.9569016 Z M66.0600165,7.66818033 L67.7392063,3.56816393 L69.4188795,7.66818033 L66.0600165,7.66818033 Z M77.7379521,12.9569016 L80.5175842,12.9569016 L80.5175842,2.88337705 L84.3628465,2.88337705 L84.3628465,0.319295082 L73.8926898,0.319295082 L73.8926898,2.88337705 L77.7379521,2.88337705 L77.7379521,12.9569016 Z M86.9800231,12.9569016 L89.7596551,12.9569016 L89.7596551,0.317360656 L86.9800231,0.317360656 L86.9800231,12.9569016 Z M98.6951881,13.1750082 C102.594602,13.1750082 105.42887,10.2308115 105.42887,6.63906557 L105.42887,6.60182787 C105.42887,3.00863115 102.629898,0.101672131 98.7314505,0.101672131 C94.8320363,0.101672131 91.998736,3.04586885 91.998736,6.63906557 L91.998736,6.67485246 C91.998736,10.2680492 94.7962574,13.1750082 98.6951881,13.1750082 L98.6951881,13.1750082 Z M98.7314505,10.6104426 C96.4933366,10.6104426 94.9050446,8.80562295 94.9050446,6.63906557 L94.9050446,6.60182787 C94.9050446,4.43527049 96.4580413,2.6662377 98.6951881,2.6662377 C100.934269,2.6662377 102.522561,4.47202459 102.522561,6.63906557 L102.522561,6.67485246 C102.522561,8.84140984 100.970531,10.6104426 98.7314505,10.6104426 L98.7314505,10.6104426 Z M107.90148,12.9569016 L110.645333,12.9569016 L110.645333,4.92371311 L116.764972,12.9569016 L119.130246,12.9569016 L119.130246,0.319295082 L116.386393,0.319295082 L116.386393,8.1010082 L110.465472,0.319295082 L107.90148,0.319295082 L107.90148,12.9569016 Z M127.577446,12.9569016 L132.505261,12.9569016 C136.475749,12.9569016 139.219602,10.1950246 139.219602,6.63906557 L139.219602,6.60182787 C139.219602,3.04586885 136.475749,0.319295082 132.505261,0.319295082 L127.577446,0.319295082 L127.577446,12.9569016 Z M130.357078,10.4479508 L130.357078,2.8282459 L132.505261,2.8282459 C134.78012,2.8282459 136.313294,4.39948361 136.313294,6.63906557 L136.313294,6.67485246 C136.313294,8.91298361 134.78012,10.4479508 132.505261,10.4479508 L130.357078,10.4479508 Z M141.818889,12.9569016 L144.598521,12.9569016 L144.598521,0.317360656 L141.818889,0.317360656 L141.818889,12.9569016 Z M152.253751,13.1387377 C154.978264,13.1387377 156.892917,11.7299918 156.892917,9.21959016 L156.892917,9.18428689 C156.892917,6.98145902 155.448708,6.06163934 152.8852,5.39281148 C150.700754,4.83279508 150.159236,4.56197541 150.159236,3.73065574 L150.159236,3.69486885 C150.159236,3.08117213 150.718644,2.59466393 151.783307,2.59466393 C152.848937,2.59466393 153.949863,3.06327869 155.069162,3.83946721 L156.512888,1.74593443 C155.231134,0.716819672 153.660731,0.138909836 151.820053,0.138909836 C149.239139,0.138909836 147.397493,1.65501639 147.397493,3.94779508 L147.397493,3.98406557 C147.397493,6.49446721 149.039454,7.19714754 151.585073,7.84808197 C153.697477,8.39020492 154.131175,8.7504918 154.131175,9.45462295 L154.131175,9.49040984 C154.131175,10.2308115 153.445091,10.6834672 152.307419,10.6834672 C150.86321,10.6834672 149.672353,10.0862131 148.534682,9.14801639 L146.891271,11.1167787 C148.408488,12.4703934 150.339097,13.1387377 152.253751,13.1387377 L152.253751,13.1387377 Z M161.984155,12.9569016 L164.765238,12.9569016 L164.765238,2.88337705 L168.60905,2.88337705 L168.60905,0.319295082 L158.140343,0.319295082 L158.140343,2.88337705 L161.984155,2.88337705 L161.984155,12.9569016 Z M170.739343,12.9569016 L173.518975,12.9569016 L173.518975,8.91298361 L175.667642,8.91298361 L175.703421,8.91298361 L178.411012,12.9569016 L181.661087,12.9569016 L178.573467,8.44388525 C180.180132,7.84808197 181.281541,6.56652459 181.281541,4.52618852 L181.281541,4.49040164 C181.281541,3.29782787 180.901995,2.30595082 180.198021,1.60133607 C179.368338,0.7705 178.122363,0.319295082 176.516182,0.319295082 L170.739343,0.319295082 L170.739343,12.9569016 Z M173.518975,6.45722951 L173.518975,2.8282459 L176.280718,2.8282459 C177.63548,2.8282459 178.465163,3.44194262 178.465163,4.63451639 L178.465163,4.67078689 C178.465163,5.73520492 177.689149,6.45722951 176.335837,6.45722951 L173.518975,6.45722951 Z M183.916607,12.9569016 L186.696239,12.9569016 L186.696239,0.317360656 L183.916607,0.317360656 L183.916607,12.9569016 Z M195.776338,13.1750082 C198.213653,13.1750082 199.65738,12.3083852 200.957023,10.9175328 L199.188386,9.13012295 C198.195281,10.0325328 197.310962,10.6104426 195.867236,10.6104426 C193.701163,10.6104426 192.201835,8.80562295 192.201835,6.63906557 L192.201835,6.60182787 C192.201835,4.43527049 193.736942,2.6662377 195.867236,2.6662377 C197.130617,2.6662377 198.122756,3.20787705 199.097972,4.09239344 L200.866609,2.05302459 C199.693158,0.897204918 198.266838,0.101672131 195.884642,0.101672131 C192.003601,0.101672131 189.295526,3.04586885 189.295526,6.63906557 L189.295526,6.67485246 C189.295526,10.3038361 192.057269,13.1750082 195.776338,13.1750082 L195.776338,13.1750082 Z M206.120302,12.9569016 L208.89945,12.9569016 L208.89945,2.88337705 L212.745196,2.88337705 L212.745196,0.319295082 L202.274556,0.319295082 L202.274556,2.88337705 L206.120302,2.88337705 L206.120302,12.9569016 Z" id="Fill-3"></path>
                </g>
            </g>
        </g>
    </g>
</svg>