<?xml version="1.0" encoding="UTF-8"?>
<svg width="61px" height="60px" viewBox="0 0 61 60" version="1.1" xmlns="http://www.w3.org/2000/svg" xmlns:xlink="http://www.w3.org/1999/xlink">
    <!-- Generator: Sketch 43.2 (39069) - http://www.bohemiancoding.com/sketch -->
    <title>logo-mark</title>
    <desc>Created with Sketch.</desc>
    <defs></defs>
    <g id="Page-1" stroke="none" stroke-width="1" fill="none" fill-rule="evenodd">
        <g id="EC-Home" transform="translate(-64.000000, -142.000000)" fill="#FFFFFF">
            <g id="logo-mark" transform="translate(64.000000, 142.000000)">
                <path d="M38.5021677,49.2854996 C24.832566,49.2854996 13.7519413,38.1979708 13.7519413,24.5211113 C13.7519413,12.4633407 22.3651883,2.42347222 33.7703408,0.21335373 C32.6223679,0.0825500951 31.4571927,0.00808658013 30.2738786,0.00808658013 C13.5539419,0.00808658013 2.46451882e-05,13.4342228 2.46451882e-05,29.9962973 C2.46451882e-05,46.5583718 13.5539419,59.984508 30.2738786,59.984508 C44.3892625,59.984508 56.2473443,50.4160941 59.6001251,37.4704249 C55.2458131,44.5577559 47.4268806,49.2854996 38.5021677,49.2854996" id="Fill-32"></path>
                <path d="M26.926919,18.9492359 L26.926919,19.275654 L48.5687957,19.275654 L48.5687957,18.9492359 C48.5687957,15.4845156 47.5202908,7.42630249 37.7570993,7.42630249 C32.1902934,7.44220971 26.926919,13.0422403 26.926919,18.9492359" id="Fill-35"></path>
                <path d="M26.6924053,25.7198507 L26.6924053,26.0463181 C26.6924053,35.4268988 33.03169,41.7295557 42.467199,41.7295557 C52.3207398,41.7295557 60.0393171,34.8403509 60.0393171,26.0463181 L60.0393171,25.7198507 L26.6924053,25.7198507 Z" id="Fill-37"></path>
            </g>
        </g>
    </g>
</svg>