<?xml version="1.0" encoding="UTF-8"?>
<svg width="311px" height="21px" viewBox="0 0 311 21" version="1.1" xmlns="http://www.w3.org/2000/svg" xmlns:xlink="http://www.w3.org/1999/xlink">
    <!-- Generator: Sketch 43.2 (39069) - http://www.bohemiancoding.com/sketch -->
    <title>logo-words</title>
    <desc>Created with Sketch.</desc>
    <defs></defs>
    <g id="Page-1" stroke="none" stroke-width="1" fill="none" fill-rule="evenodd">
        <g id="EC-Home" transform="translate(-144.000000, -163.000000)" fill="#FFFFFF">
            <g id="logo-words" transform="translate(144.000000, 163.000000)">
                <polygon id="Fill-1" points="7.26590619 20.2964706 7.26590619 4.04541176 0.735494881 4.04541176 0.735494881 0.333333333 18.9975712 0.333333333 18.9975712 4.04541176 12.4671599 4.04541176 12.4671599 20.2964706"></polygon>
                <polygon id="Fill-3" points="19.977179 20.2528627 19.977179 7.54901961 23.1215804 7.54901961 23.1215804 12.6454902 28.7115324 12.6454902 28.7115324 7.54901961 31.8559338 7.54901961 31.8559338 20.2528627 28.7115324 20.2528627 28.7115324 15.1007059 23.1215804 15.1007059 23.1215804 20.2528627"></polygon>
                <polygon id="Fill-5" points="37.5007828 20.2528627 37.5007828 7.54901961 45.9042037 7.54901961 45.9042037 9.89262745 40.6451841 9.89262745 40.6451841 12.4780392 45.6651538 12.4780392 45.6651538 14.8402353 40.6451841 14.8402353 40.6451841 17.8720784 46.0512934 17.8720784 46.0512934 20.2528627"></polygon>
                <polygon id="Fill-7" points="61.464911 20.0646589 61.464911 0.333651163 74.6789669 0.333651163 74.6789669 3.97365116 66.4097467 3.97365116 66.4097467 7.98853488 74.3031426 7.98853488 74.3031426 11.6580698 66.4097467 11.6580698 66.4097467 16.366907 74.9103269 16.366907 74.9103269 20.0646589"></polygon>
                <polygon id="Fill-9" points="84.0404981 12.1754419 84.0404981 20.0646667 80.9310256 20.0646667 80.9310256 7.50854264 83.6882599 7.50854264 90.4250884 14.9934264 90.4250884 7.50854264 93.534561 7.50854264 93.534561 20.0646667 91.0736258 20.0646667"></polygon>
                <polygon id="Fill-11" points="102.194828 20.0646589 102.194828 9.84264341 98.0364764 9.84264341 98.0364764 7.50853488 109.664917 7.50853488 109.664917 9.84264341 105.506721 9.84264341 105.506721 20.0646589"></polygon>
                <polygon id="Fill-13" points="114.160951 20.0646589 114.160951 7.50853488 122.569515 7.50853488 122.569515 9.82496899 117.307277 9.82496899 117.307277 12.3803178 122.330319 12.3803178 122.330319 14.714969 117.307277 14.714969 117.307277 17.7115581 122.716695 17.7115581 122.716695 20.0646589"></polygon>
                <path d="M132.57683,12.6560388 C133.158333,12.6560388 133.591415,12.5345659 133.87662,12.292938 C134.161126,12.0506899 134.303728,11.6816977 134.303728,11.1853411 C134.303728,10.7132481 134.155229,10.3528605 133.858775,10.1046434 C133.561778,9.85712403 133.134669,9.7330155 132.57683,9.7330155 L131.065464,9.7330155 L131.065464,12.6560388 L132.57683,12.6560388 Z M127.919138,20.0646434 L127.919138,7.5085969 L132.558442,7.5085969 C134.264935,7.5085969 135.525312,7.80402326 136.339495,8.39627132 C137.153677,8.98844186 137.56038,9.90634884 137.56038,11.1498372 C137.56038,11.8438682 137.381003,12.4374341 137.022247,12.9304574 C136.663492,13.4235581 136.11279,13.841155 135.371538,14.1819302 C135.682966,14.2954186 135.962351,14.485186 136.210703,14.7517752 C136.458433,15.0183643 136.675285,15.3551085 136.861257,15.7622403 L138.866765,20.0646434 L135.317616,20.0646434 L133.718888,16.445031 C133.461305,15.8699147 133.167566,15.4746434 132.837672,15.2592946 C132.507778,15.0432481 132.039938,14.9356512 131.434072,14.9356512 C131.386745,14.9356512 131.323668,14.938907 131.245462,14.9447984 C131.167256,14.9506899 131.107515,14.9540233 131.065464,14.9540233 L131.065464,20.0646434 L127.919138,20.0646434 L127.919138,20.0646434 Z" id="Fill-15"></path>
                <path d="M147.649183,12.711186 C148.241316,12.711186 148.680915,12.5930465 148.968059,12.3566124 C149.254505,12.1209535 149.398504,11.7604884 149.398504,11.2772326 C149.398504,10.817 149.248608,10.463124 148.949671,10.214907 C148.650657,9.96676744 148.223548,9.84265891 147.66695,9.84265891 L146.160162,9.84265891 L146.160162,12.711186 L147.649183,12.711186 Z M142.995526,20.0646744 L142.995526,7.50855039 L147.630795,7.50855039 C149.332711,7.50855039 150.591847,7.81653488 151.409908,8.43304651 C152.228048,9.04955814 152.636768,9.99165116 152.636768,11.2601783 C152.636768,12.5647519 152.199186,13.5404109 151.324487,14.1864574 C150.450486,14.8325039 149.134946,15.1555271 147.380427,15.1555271 L146.160162,15.1555271 L146.160162,20.0646744 L142.995526,20.0646744 L142.995526,20.0646744 Z" id="Fill-17"></path>
                <path d="M162.273449,12.6560388 C162.85503,12.6560388 163.288035,12.5345659 163.573239,12.292938 C163.857745,12.0506899 164.000425,11.6816977 164.000425,11.1853411 C164.000425,10.7132481 163.851849,10.3528605 163.554851,10.1046434 C163.257854,9.85712403 162.830746,9.7330155 162.273449,9.7330155 L160.761462,9.7330155 L160.761462,12.6560388 L162.273449,12.6560388 Z M157.615835,20.0646434 L157.615835,7.5085969 L162.255061,7.5085969 C163.961632,7.5085969 165.221311,7.80402326 166.035416,8.39627132 C166.849598,8.98844186 167.257,9.90634884 167.257,11.1498372 C167.257,11.8438682 167.077699,12.4374341 166.718246,12.9304574 C166.359413,13.4235581 165.809409,13.841155 165.067536,14.1819302 C165.378964,14.2954186 165.658272,14.485186 165.906701,14.7517752 C166.155052,15.0183643 166.371904,15.3551085 166.557256,15.7622403 L168.563385,20.0646434 L165.013614,20.0646434 L163.415585,16.445031 C163.157303,15.8699147 162.863487,15.4746434 162.533671,15.2592946 C162.203854,15.0432481 161.736557,14.9356512 161.130692,14.9356512 C161.082744,14.9356512 161.019667,14.938907 160.94146,14.9447984 C160.863953,14.9506899 160.803513,14.9540233 160.761462,14.9540233 L160.761462,20.0646434 L157.615835,20.0646434 L157.615835,20.0646434 Z" id="Fill-19"></path>
                <polygon id="Fill-21" points="172.783486 20.0647287 176.021751 20.0647287 176.021751 7.50860465 172.783486 7.50860465"></polygon>
                <path d="M181.477231,19.0673566 L181.477231,16.2775891 C182.423387,16.8646434 183.221819,17.2742558 183.871675,17.5079767 C184.521609,17.7417752 185.152457,17.8585969 185.7629,17.8585969 C186.379938,17.8585969 186.847235,17.7641008 187.164638,17.5756512 C187.482583,17.3865814 187.640935,17.1068915 187.640935,16.7358837 C187.640935,16.4358837 187.542402,16.194876 187.345334,16.0123953 C187.147491,15.8298372 186.686789,15.6131705 185.962683,15.3616977 C184.172009,14.7327829 182.940572,14.0906124 182.267052,13.4353411 C181.593454,12.7794496 181.256345,11.9430155 181.256345,10.9253411 C181.256345,9.85386822 181.694703,8.98255039 182.571885,8.31154264 C183.449222,7.64123256 184.591281,7.30634884 185.997519,7.30634884 C186.709831,7.30634884 187.425403,7.3930155 188.14369,7.56634884 C188.861976,7.74037984 189.571573,7.99441085 190.272093,8.32991473 L190.272093,10.9096047 C189.428351,10.4834806 188.671426,10.1689845 188.001087,9.96479845 C187.330826,9.76123256 186.719685,9.65944961 186.169681,9.65944961 C185.571109,9.65944961 185.115061,9.74611628 184.800219,9.91944961 C184.486153,10.0934806 184.32912,10.3423178 184.32912,10.6653411 C184.32912,10.9292946 184.469705,11.1761163 184.750952,11.4065814 C185.0322,11.6376667 185.456748,11.8576667 186.025139,12.067124 C186.145397,12.115031 186.328033,12.1839457 186.573746,12.2732481 C187.771745,12.7164264 188.631237,13.0959612 189.152379,13.413093 C189.697805,13.7478992 190.109164,14.1785969 190.387773,14.705186 C190.666305,15.2310775 190.805649,15.846969 190.805649,16.5527054 C190.805649,17.7128605 190.366747,18.624876 189.489488,19.2892946 C188.61153,19.9530155 187.393903,20.2846434 185.835908,20.2846434 C185.05726,20.2846434 184.303516,20.1834806 183.575376,19.9806124 C182.847934,19.7777442 182.148113,19.473093 181.477231,19.0673566" id="Fill-23"></path>
                <polygon id="Fill-24" points="195.795166 20.0646589 195.795166 7.50853488 204.20373 7.50853488 204.20373 9.82496899 198.941569 9.82496899 198.941569 12.3803178 203.964534 12.3803178 203.964534 14.714969 198.941569 14.714969 198.941569 17.7115581 204.35091 17.7115581 204.35091 20.0646589"></polygon>
                <path d="M235.428452,18.3095975 C234.273052,18.9680126 233.090837,19.4575975 231.880975,19.7778994 C230.671264,20.0981258 229.401956,20.2578994 228.073125,20.2578994 C226.56973,20.2578994 225.187797,20.0297484 223.928082,19.5714088 C222.667762,19.1137484 221.565464,18.4406164 220.621187,17.5527673 C219.64934,16.6284654 218.909162,15.5481635 218.400502,14.3119371 C217.891917,13.0763145 217.637285,11.7486164 217.637285,10.3295975 C217.637285,7.34506918 218.634059,4.93971069 220.626928,3.11284277 C222.620401,1.28657862 225.252381,0.373748428 228.524151,0.373748428 C229.696849,0.373748428 230.840088,0.501597484 231.953263,0.757899371 C233.066438,1.01359748 234.168812,1.40733333 235.258949,1.93857862 L235.258949,6.44891824 C234.196912,5.75978616 233.129813,5.24522013 232.058258,4.90522013 C230.986552,4.56574843 229.914997,4.39571069 228.843367,4.39571069 C226.901031,4.39571069 225.373994,4.9218239 224.261423,5.97525786 C223.148247,7.02801258 222.591697,8.47971069 222.591697,10.3295975 C222.591697,12.1245409 223.12332,13.557673 224.185887,14.6289937 C225.248528,15.7003145 226.678427,16.2366164 228.474297,16.2366164 C229.628413,16.2366164 230.787061,16.0326918 231.95077,15.6248428 C233.114479,15.2170692 234.273732,14.6148805 235.428452,13.8178239 L235.428452,18.3095975" id="Fill-25"></path>
                <polygon id="Fill-26" points="241.070668 19.9210692 241.070668 7.69661635 249.257044 7.69661635 249.257044 9.95178616 244.133884 9.95178616 244.133884 12.4396352 249.024166 12.4396352 249.024166 14.7126918 244.133884 14.7126918 244.133884 17.6301258 249.400336 17.6301258 249.400336 19.9210692"></polygon>
                <polygon id="Fill-27" points="257.42106 12.2402088 257.42106 19.921039 254.393725 19.921039 254.393725 7.69666164 257.078882 7.69666164 263.637681 14.983756 263.637681 7.69666164 266.665092 7.69666164 266.665092 19.921039 264.268483 19.921039"></polygon>
                <polygon id="Fill-28" points="275.095841 19.9210692 275.095841 9.96906918 271.047409 9.96906918 271.047409 7.69661635 282.368683 7.69661635 282.368683 9.96906918 278.320251 9.96906918 278.320251 19.9210692"></polygon>
                <polygon id="Fill-29" points="286.745955 19.9210692 286.745955 7.69661635 294.93233 7.69661635 294.93233 9.95178616 289.80917 9.95178616 289.80917 12.4396352 294.699452 12.4396352 294.699452 14.7126918 289.80917 14.7126918 289.80917 17.6301258 295.075622 17.6301258 295.075622 19.9210692"></polygon>
                <path d="M304.675965,12.7081107 C305.242108,12.7081107 305.66375,12.5898465 305.941421,12.3546013 C306.218412,12.1187522 306.357323,11.7595069 306.357323,11.2762616 C306.357323,10.816639 306.212671,10.4657711 305.923519,10.2241107 C305.634367,9.98312956 305.219069,9.86229937 304.675965,9.86229937 L303.204522,9.86229937 L303.204522,12.7081107 L304.675965,12.7081107 Z M300.141306,19.9210918 L300.141306,7.69663899 L304.658063,7.69663899 C306.318875,7.69663899 307.545959,7.98433711 308.338559,8.56086541 C309.131235,9.13746918 309.527875,10.0310541 309.527875,11.2417711 C309.527875,11.9173937 309.352631,12.4952805 309.003352,12.975356 C308.653997,13.455356 308.118522,13.861922 307.39685,14.1936956 C307.699448,14.3042616 307.971378,14.4890164 308.213244,14.7484881 C308.455035,15.0080352 308.666159,15.3359597 308.846615,15.7322616 L310.799751,19.9210918 L307.343748,19.9210918 L305.787931,16.3970164 C305.536472,15.8370918 305.250417,15.4522616 304.929313,15.2426767 C304.608738,15.0323371 304.153255,14.9275069 303.563394,14.9275069 C303.516712,14.9275069 303.455301,14.9306767 303.379841,14.9364126 C303.3037,14.9422239 303.245462,14.9453937 303.204522,14.9453937 L303.204522,19.9210918 L300.141306,19.9210918 L300.141306,19.9210918 Z" id="Fill-30"></path>
            </g>
        </g>
    </g>
</svg>