<?xml version="1.0" encoding="UTF-8"?>
<svg width="61px" height="61px" viewBox="0 0 61 61" version="1.1" xmlns="http://www.w3.org/2000/svg" xmlns:xlink="http://www.w3.org/1999/xlink">
    <!-- Generator: Sketch 43.2 (39069) - http://www.bohemiancoding.com/sketch -->
    <title>logo-mark</title>
    <desc>Created with Sketch.</desc>
    <defs></defs>
    <g id="Symbols" stroke="none" stroke-width="1" fill="none" fill-rule="evenodd">
        <g id="ID-/-logo/-white" transform="translate(0.000000, 1.000000)">
            <g id="logo-mark" transform="translate(0.000000, -1.000000)">
                <path d="M30.4596529,60.9896023 L27.2917985,60.9896023 L24.2804734,60.9896023 L24.2804734,56.9622159 L30.3031237,56.9622159 C30.7200381,56.9622159 31.1329773,56.943401 31.5449226,56.924586 C31.6855505,56.9196347 31.8261784,56.9151786 31.9668062,56.9072565 C44.083166,56.1442614 53.9877423,47.1086364 56.0683394,35.4017857 C56.0743024,35.3681169 56.0782777,35.3349432 56.0842408,35.3012744 C56.1607662,34.8601136 56.2248686,34.4144968 56.2790327,33.965414 C56.3053694,33.7435958 56.3232585,33.5227679 56.3436321,33.3014448 C56.3714596,33.0078328 56.4007777,32.715211 56.4191637,32.4191234 C56.435562,32.1482873 56.4400343,31.8794318 56.447985,31.6100812 C56.4559357,31.3466721 56.4668679,31.0842532 56.4668679,30.8183685 C56.4668679,30.5529789 56.4559357,30.2895698 56.447985,30.0256656 C56.4400343,29.7568101 56.435562,29.4884497 56.4191637,29.2176136 C56.4007777,28.9220211 56.3714596,28.6289042 56.3436321,28.3357873 C56.3232585,28.1144643 56.3053694,27.8931412 56.2790327,27.6708279 C56.2248686,27.2227354 56.1607662,26.7776136 56.0842408,26.3359578 C56.0782777,26.302289 56.0743024,26.268125 56.0683394,26.2344562 C53.9877423,14.5285958 44.083166,5.49148539 31.9668062,4.72849026 C31.8261784,4.72155844 31.6855505,4.7175974 31.5449226,4.71215097 C31.1329773,4.69284091 30.7200381,4.67501623 30.3031237,4.67501623 L24.2804734,4.67501623 L24.2804734,0.64663961 L30.3031237,0.64663961 L30.6161822,0.64663961 C30.9371914,0.64663961 31.2537284,0.675357143 31.5742408,0.68476461 C31.8008355,0.694667208 32.029418,0.697637987 32.254522,0.711996753 C44.5298956,1.3774513 55.3865674,9.42974838 59.0329542,21.2603815 C59.648636,23.2572403 60.0575998,25.2367695 60.2856853,27.1860958 C60.3020836,27.3182955 60.3080466,27.4544562 60.3224572,27.587151 C60.3706583,28.0515828 60.4183625,28.5145292 60.4466868,28.9740097 C60.4650728,29.2978247 60.4675574,29.6256006 60.4769988,29.9518912 C60.4849495,30.2405519 60.5013478,30.5311932 60.5013478,30.8183685 C60.5013478,31.1055438 60.4849495,31.3961851 60.4769988,31.6848458 C60.4675574,32.0106412 60.4650728,32.3389123 60.4466868,32.661737 C60.4183625,33.1222078 60.3706583,33.5871347 60.3224572,34.0510714 C60.3080466,34.1837662 60.3015867,34.3184416 60.2856853,34.4506412 C60.0575998,36.3999675 59.648636,38.3794968 59.0329542,40.3763555 C55.3865674,52.2059984 44.5298956,60.2597808 32.254522,60.9242451 C32.029418,60.9386039 31.8008355,60.9425649 31.5742408,60.9514773 C31.2537284,60.961875 30.9371914,60.9896023 30.6161822,60.9896023 L30.4596529,60.9896023 Z M30.6395374,52.9343344 L24.2804734,52.9343344 L24.2804734,48.9064529 L30.3031237,48.9064529 C39.3684049,48.9064529 46.8952269,42.2137825 48.2031159,33.5143506 C48.2205081,33.3970049 48.2379002,33.2786688 48.2528078,33.1613231 C48.281629,32.9424756 48.3034935,32.7216477 48.324364,32.5018101 C48.3412592,32.3210877 48.355173,32.1413555 48.3661052,31.9611282 C48.3785281,31.7714935 48.3864788,31.5823539 48.3929388,31.3907386 C48.3989018,31.1986282 48.4018833,31.0084984 48.4018833,30.8183685 C48.4018833,30.6287338 48.3989018,30.4371185 48.3929388,30.2459984 C48.3864788,30.0553734 48.3785281,29.8647484 48.3661052,29.6751136 C48.355173,29.4958766 48.3412592,29.3161445 48.324364,29.1354221 C48.3034935,28.914099 48.281629,28.6942614 48.2528078,28.4749188 C48.2379002,28.3580682 48.2205081,28.2397321 48.2031159,28.1218912 C46.8952269,19.4234497 39.3684049,12.7302841 30.3031237,12.7302841 L24.2804734,12.7302841 L24.2804734,8.7024026 L30.3031237,8.7024026 L30.6395374,8.7024026 C39.7043216,8.7024026 47.9670797,14.2602354 51.014183,22.7888474 C51.5771914,24.3663312 51.957334,25.9329221 52.1849226,27.4777273 C52.2052962,27.6143831 52.2211976,27.7545049 52.2390867,27.8926461 C52.2768525,28.1832873 52.3146183,28.4724432 52.3409549,28.7611039 C52.3613286,28.9834172 52.3732546,29.2082062 52.3871683,29.4315097 C52.401082,29.6632305 52.4174804,29.893961 52.4239403,30.1237013 C52.431891,30.3539367 52.4294064,30.5866477 52.4294064,30.8183685 C52.4294064,31.0500893 52.431891,31.2828003 52.4239403,31.5130357 C52.4174804,31.7422808 52.401082,31.9740016 52.3871683,32.2047321 C52.3732546,32.429026 52.3613286,32.6533198 52.3409549,32.8756331 C52.3146183,33.1633036 52.2768525,33.4534497 52.2390867,33.7435958 C52.2211976,33.8822321 52.2052962,34.0213636 52.1849226,34.16 C51.957334,35.7038149 51.5771914,37.2694156 51.014183,38.8478896 C47.9670797,47.3765016 39.7043216,52.9343344 30.6395374,52.9343344 Z M30.690223,44.8790666 L24.2804734,44.8790666 L24.2804734,44.8785714 L24.2804734,40.8506899 L30.3031237,40.8506899 C35.0183817,40.8506899 38.9728579,37.5838231 40.0471953,33.1994481 C40.0760166,33.0741802 40.1117947,32.9484172 40.1361437,32.8236445 C40.1833509,32.5904383 40.213166,32.3507955 40.2449688,32.112638 C40.2713055,31.8972565 40.298636,31.6823701 40.3115559,31.4694643 C40.3254696,31.2545779 40.3269603,31.0372159 40.3279542,30.8183685 C40.3269603,30.6000162 40.3254696,30.3821591 40.3115559,30.1667776 C40.298636,29.9538718 40.2713055,29.7394805 40.2449688,29.5236039 C40.213166,29.2854464 40.1833509,29.0462987 40.1361437,28.8140828 C40.1117947,28.6888149 40.0760166,28.5625568 40.0471953,28.4367938 C38.971864,24.0534091 35.0183817,20.7860471 30.3046144,20.7860471 L24.2804734,20.7860471 L24.2804734,20.7850568 L24.2804734,16.7576705 L30.3031237,16.7576705 L30.690223,16.7576705 C36.0117215,16.7576705 40.9550651,19.8076705 43.0659742,24.6881656 C43.462515,25.6061364 43.7323417,26.5186607 43.9460166,27.4242532 C43.9947146,27.6193344 44.0384434,27.8144156 44.0791907,28.0124675 C44.1447839,28.3471753 44.1984511,28.6794075 44.2396953,29.0116396 C44.277958,29.3102029 44.3072762,29.6097565 44.3271529,29.9137662 C44.3460358,30.217776 44.3554773,30.5183198 44.3554773,30.8183685 C44.3554773,31.1179221 44.3460358,31.4194562 44.3271529,31.7229708 C44.3072762,32.0269805 44.277958,32.3270292 44.2396953,32.6250974 C44.1984511,32.9568344 44.1447839,33.2895617 44.0791907,33.6247646 C44.0384434,33.8223214 43.9947146,34.0174026 43.9460166,34.2119886 C43.7323417,35.1180763 43.462515,36.0296104 43.0659742,36.9480763 C40.9550651,41.8290666 36.0117215,44.8790666 30.690223,44.8790666 Z" id="Fill-1" fill="#FFFFFF"></path>
                <polygon id="Fill-3" fill="#FFD13F" points="-0.000198767336 0.495377435 -0.000198767336 60.9106291 20.1881025 60.9106291"></polygon>
                <path d="M0,4.58787338 L20.1883012,4.58787338 L20.1883012,0.564448052 L0,0.564448052 L0,4.58787338 Z M0,12.6337338 L20.1883012,12.6337338 L20.1883012,8.61030844 L0,8.61030844 L0,12.6337338 Z M0,20.6795942 L20.1883012,20.6795942 L20.1883012,16.6561688 L0,16.6561688 L0,20.6795942 Z M0,28.7264448 L20.1883012,28.7264448 L20.1883012,24.7025244 L0,24.7025244 L0,28.7264448 Z M0,36.7723052 L20.1883012,36.7723052 L20.1883012,32.7483847 L0,32.7483847 L0,36.7723052 Z M0,44.8181656 L20.1883012,44.8181656 L20.1883012,40.7942451 L0,40.7942451 L0,44.8181656 Z M0,52.8645211 L20.1883012,52.8645211 L20.1883012,48.8406006 L0,48.8406006 L0,52.8645211 Z M0,60.9103815 L20.1883012,60.9103815 L20.1883012,56.8874513 L0,56.8874513 L0,60.9103815 Z" id="Fill-6" fill="#3BB0C9"></path>
                <path d="M60.5015466,30.6837922 L60.5015466,30.6837922 C60.5015466,30.7065682 60.5030374,30.7283539 60.5030374,30.7506347 L24.2801753,30.751625 L24.2801753,0.495228896 L30.6153871,0.495228896 C43.5556375,0.495228896 55.2252677,8.75300487 59.0341468,21.1089708 C59.8759264,23.8420877 60.334582,26.5435162 60.4612962,29.1766169 C60.4617931,29.1889951 60.4632839,29.2013734 60.4632839,29.2137516 C60.4861421,29.7064058 60.5015466,30.1970795 60.5015466,30.6837922" id="Fill-8" fill="#F7323F"></path>
            </g>
        </g>
    </g>
</svg>