<?xml version="1.0" encoding="UTF-8"?>
<svg width="18px" height="17px" viewBox="0 0 18 17" version="1.1" xmlns="http://www.w3.org/2000/svg" xmlns:xlink="http://www.w3.org/1999/xlink">
    <!-- Generator: Sketch 46.2 (44496) - http://www.bohemiancoding.com/sketch -->
    <title>diamond</title>
    <desc>Created with Sketch.</desc>
    <defs></defs>
    <g id="Welcome" stroke="none" stroke-width="1" fill="none" fill-rule="evenodd">
        <g id="sow-desktop" transform="translate(-371.000000, -5130.000000)" stroke="#41BCD8">
            <g id="diamond" transform="translate(371.000000, 5130.000000)">
                <path d="M1.44090666,2.43800734 C1.22923657,2.48984552 1.07552127,2.67280804 1.06095977,2.89024628 L0.584183802,10.009657 C0.581487575,10.0499181 0.583674968,10.0903576 0.590698249,10.130093 C0.638761742,10.4020204 0.898165615,10.583498 1.17009302,10.5354345 L8.08702665,9.31285821 C8.32589331,9.27063824 8.5,9.06305927 8.5,8.82049009 L8.5,1.34645588 C8.5,1.30637876 8.49518154,1.26644699 8.48564834,1.22752021 C8.41996198,0.959304043 8.1492805,0.795121189 7.88106433,0.860807545 L1.44090666,2.43800734 Z" id="Rectangle-10"></path>
                <path d="M8.45929886,1.08506356 L17.4375,16.3125" id="Line-2" stroke-linecap="round" stroke-linejoin="bevel"></path>
                <path d="M0.752448086,10.3202226 L17.4375,16.3125" id="Line-4" stroke-linecap="round"></path>
                <path d="M8.35169425,9.10939441 L17.4375,16.3125" id="Line-3" stroke-linecap="round" stroke-linejoin="bevel"></path>
            </g>
        </g>
    </g>
</svg>