<?xml version="1.0" encoding="UTF-8"?>
<svg width="16px" height="16px" viewBox="0 0 16 16" version="1.1" xmlns="http://www.w3.org/2000/svg" xmlns:xlink="http://www.w3.org/1999/xlink">
    <!-- Generator: Sketch 49 (51002) - http://www.bohemiancoding.com/sketch -->
    <title>fb</title>
    <desc>Created with Sketch.</desc>
    <defs></defs>
    <g id="Welcome" stroke="none" stroke-width="1" fill="none" fill-rule="evenodd">
        <g id="sow-desktop" transform="translate(-197.000000, -5426.000000)" fill="#0053B7" fill-rule="nonzero">
            <g id="fb" transform="translate(197.000000, 5426.000000)">
                <g id="Layer_1">
                    <g id="White_1_">
                        <path d="M15.1168889,0 L0.883111111,0 C0.395333333,0 0,0.395333333 0,0.883111111 L0,15.1171111 C0,15.6046667 0.395333333,16 0.883111111,16 L8.546,16 L8.546,9.804 L6.46088889,9.804 L6.46088889,7.38933333 L8.546,7.38933333 L8.546,5.60844444 C8.546,3.54177778 9.80822222,2.41666667 11.6517778,2.41666667 C12.5348889,2.41666667 13.2937778,2.48222222 13.5151111,2.51177778 L13.5151111,4.67155556 L12.2364444,4.67222222 C11.2337778,4.67222222 11.0397778,5.14866667 11.0397778,5.84777778 L11.0397778,7.38955556 L13.4308889,7.38955556 L13.1195556,9.80422222 L11.0397778,9.80422222 L11.0397778,16 L15.1171111,16 C15.6046667,16 16,15.6046667 16,15.1168889 L16,0.883111111 C16,0.395333333 15.6046667,0 15.1168889,0 Z" id="Shape"></path>
                    </g>
                </g>
            </g>
        </g>
    </g>
</svg>