<?xml version="1.0" encoding="UTF-8"?>
<svg width="220px" height="233px" viewBox="0 0 220 233" version="1.1" xmlns="http://www.w3.org/2000/svg" xmlns:xlink="http://www.w3.org/1999/xlink">
    <!-- Generator: Sketch 47 (45396) - http://www.bohemiancoding.com/sketch -->
    <title>triangle-square</title>
    <desc>Created with Sketch.</desc>
    <defs>
        <polygon id="path-1" points="51.6325846 118.153846 103.264615 118.153846 103.264615 0.788307692 51.6325846 0.788307692 0.000553846154 0.788307692 0.000553846154 118.153846 51.6325846 118.153846"></polygon>
    </defs>
    <g id="Welcome" stroke="none" stroke-width="1" fill="none" fill-rule="evenodd">
        <g id="sow-desktop" transform="translate(-42.000000, -4322.000000)">
            <g id="layout/pricing-section" transform="translate(-67.000000, 4184.000000)">
                <g id="day-pass" transform="translate(108.000000, 138.000000)">
                    <g id="triangle-square" transform="translate(1.000000, 0.000000)">
                        <rect id="Rectangle-9" fill="#2D2D2D" x="0" y="0" width="220" height="233"></rect>
                        <g id="pricing-triagle" transform="translate(58.000000, 58.000000)">
                            <g id="Group-3" transform="translate(0.000000, 0.058215)">
                                <mask id="mask-2" fill="white">
                                    <use xlink:href="#path-1"></use>
                                </mask>
                                <g id="Clip-2"></g>
                                <path d="M51.6319385,114.461538 C23.3802462,114.461538 3.69286154,106.803692 3.69286154,99.9304615 C3.69286154,93.0572308 23.3802462,85.3993846 51.6319385,85.3993846 C75.0337846,85.3993846 92.5464,90.6535385 97.8744,96.3636923 L98.5094769,97.5784615 L98.7457846,97.4566154 C99.2848615,98.2818462 99.5728615,99.1126154 99.5728615,99.9304615 C99.5728615,106.803692 79.8836308,114.461538 51.6319385,114.461538 L51.6319385,114.461538 Z M50.9950154,6.54646154 L94.2614769,89.4424615 C85.7636308,84.9618462 71.3765538,81.7070769 51.6319385,81.7070769 C30.4067077,81.7070769 15.3753231,85.4695385 7.19316923,90.4707692 L50.9950154,6.54646154 Z M52.6325538,1.70215385 C51.9956308,0.483692308 49.9944,0.483692308 49.3593231,1.70215385 L0.209169231,95.8707692 L1.02332308,96.2953846 C0.351323077,97.4990769 0.000553846154,98.7212308 0.000553846154,99.9304615 C0.000553846154,108.764308 18.0947077,118.153846 51.6319385,118.153846 C85.1691692,118.153846 103.265169,108.764308 103.265169,99.9304615 C103.265169,98.2061538 102.567323,96.4633846 101.208554,94.7723077 L52.6325538,1.70215385 Z" id="Fill-1" fill="#FEFEFE" mask="url(#mask-2)"></path>
                            </g>
                            <path d="M50.9955692,62.5497846 C48.4035692,62.5497846 46.2952615,60.4396308 46.2952615,57.8476308 C46.2952615,55.2556308 48.4035692,53.1473231 50.9955692,53.1473231 C53.5875692,53.1473231 55.6958769,55.2556308 55.6958769,57.8476308 C55.6958769,60.4396308 53.5875692,62.5497846 50.9955692,62.5497846 M59.3881846,57.8476308 C59.3881846,53.2193231 55.6238769,49.4550154 50.9955692,49.4550154 C46.3672615,49.4550154 42.6029538,53.2193231 42.6029538,57.8476308 C42.6029538,62.4759385 46.3672615,66.2420923 50.9955692,66.2420923 C55.6238769,66.2420923 59.3881846,62.4759385 59.3881846,57.8476308" id="Fill-4" fill="#FEFEFE"></path>
                        </g>
                    </g>
                </g>
            </g>
        </g>
    </g>
</svg>