<?xml version="1.0" encoding="UTF-8"?>
<svg width="220px" height="233px" viewBox="0 0 220 233" version="1.1" xmlns="http://www.w3.org/2000/svg" xmlns:xlink="http://www.w3.org/1999/xlink">
    <!-- Generator: Sketch 47 (45396) - http://www.bohemiancoding.com/sketch -->
    <title>pic-4</title>
    <desc>Created with Sketch.</desc>
    <defs></defs>
    <g id="Welcome" stroke="none" stroke-width="1" fill="none" fill-rule="evenodd">
        <g id="sow-desktop" transform="translate(-762.000000, -4322.000000)">
            <g id="layout/pricing-section" transform="translate(-67.000000, 4184.000000)">
                <g id="pic-4" transform="translate(829.000000, 138.000000)">
                    <rect id="Rectangle-9" fill="#2D2D2D" x="0" y="0" width="220" height="233"></rect>
                    <path d="M165.675676,172.675676 L57.04,172.675676 L71.452973,158.262703 L148.017297,158.262703 C149.212973,158.262703 150.179459,157.296216 150.179459,156.100541 L150.179459,79.5340541 L165.675676,64.0378378 L165.675676,172.675676 Z M73.0616216,150.539459 L73.0616216,81.1448649 L142.454054,81.1448649 L73.0616216,150.539459 Z M145.855135,83.8583784 L145.855135,153.938378 L75.7772973,153.938378 L145.855135,83.8583784 Z M54.3243243,61.3243243 L162.274595,61.3243243 L146.778378,76.8205405 L70.8994595,76.8205405 C69.7037838,76.8205405 68.7372973,77.787027 68.7372973,78.9827027 L68.7372973,154.863784 L54.3243243,169.276757 L54.3243243,61.3243243 Z M167.837838,57 L52.1621622,57 C50.9664865,57 50,57.9664865 50,59.1621622 L50,174.837838 C50,176.033514 50.9664865,177 52.1621622,177 L167.837838,177 C169.033514,177 170,176.033514 170,174.837838 L170,59.1621622 C170,57.9664865 169.033514,57 167.837838,57 L167.837838,57 Z" id="boxes" fill="#FEFEFE"></path>
                </g>
            </g>
        </g>
    </g>
</svg>