<?xml version="1.0" encoding="UTF-8"?>
<svg width="220px" height="233px" viewBox="0 0 220 233" version="1.1" xmlns="http://www.w3.org/2000/svg" xmlns:xlink="http://www.w3.org/1999/xlink">
    <!-- Generator: Sketch 47 (45396) - http://www.bohemiancoding.com/sketch -->
    <title>pic-2</title>
    <desc>Created with Sketch.</desc>
    <defs>
        <polygon id="path-1" points="0 59.6347619 0 -0.00019047619 122.624762 -0.00019047619 122.624762 59.6347619 122.624762 119.269714 0 119.269714"></polygon>
    </defs>
    <g id="Welcome" stroke="none" stroke-width="1" fill="none" fill-rule="evenodd">
        <g id="sow-desktop" transform="translate(-282.000000, -4322.000000)">
            <g id="layout/pricing-section" transform="translate(-67.000000, 4184.000000)">
                <g id="pic-2" transform="translate(349.000000, 138.000000)">
                    <rect id="Rectangle-9" fill="#2D2D2D" x="0" y="0" width="220" height="233"></rect>
                    <g id="circles" transform="translate(48.000000, 57.000000)">
                        <mask id="mask-2" fill="white">
                            <use xlink:href="#path-1"></use>
                        </mask>
                        <g id="Clip-2"></g>
                        <path d="M72.3885714,115.959238 C62.2057143,115.959238 52.7809524,112.690667 45.0819048,107.163048 C50.1771429,108.90781 55.632381,109.86781 61.312381,109.86781 C89.0114286,109.86781 111.544762,87.3344762 111.544762,59.6354286 C111.544762,51.0411429 109.373333,42.9478095 105.554286,35.8678095 C114.055238,44.3649524 119.318095,56.096381 119.318095,69.0354286 C119.318095,94.911619 98.2647619,115.959238 72.3885714,115.959238 M35.7752381,98.3382857 C40.3561905,99.7192381 45.207619,100.469714 50.232381,100.469714 C77.9352381,100.469714 100.468571,77.9344762 100.468571,50.2373333 C100.468571,42.304 98.6133333,34.7973333 95.3238095,28.1192381 C95.8152381,28.3935238 96.3047619,28.671619 96.7847619,28.9649524 C103.910476,37.1954286 108.238095,47.9154286 108.238095,59.6354286 C108.238095,85.5097143 87.1866667,106.559238 61.312381,106.559238 C52.3847619,106.559238 44.0304762,104.052571 36.9180952,99.7078095 C36.5295238,99.256381 36.1485714,98.8030476 35.7752381,98.3382857 M32.4628571,93.656381 C28.0285714,86.4944762 25.4628571,78.0620952 25.4628571,69.0354286 C25.4628571,43.1592381 46.512381,22.1097143 72.3885714,22.1097143 C78.6780952,22.1097143 84.6761905,23.3630476 90.1638095,25.616381 C94.5961905,32.7801905 97.1619048,41.2125714 97.1619048,50.2373333 C97.1619048,76.111619 76.1066667,97.1611429 50.232381,97.1611429 C43.9447619,97.1611429 37.9466667,95.9097143 32.4628571,93.656381 M25.8457143,90.311619 C18.712381,82.0792381 14.3828571,71.3554286 14.3828571,59.6354286 C14.3828571,33.7573333 35.4361905,12.7059048 61.312381,12.7059048 C70.2380952,12.7059048 78.5885714,15.2125714 85.7009524,19.5592381 C86.0895238,20.0087619 86.472381,20.4620952 86.8457143,20.9268571 C82.2647619,19.5478095 77.4133333,18.7973333 72.3885714,18.7973333 C44.687619,18.7973333 22.1561905,41.336381 22.1561905,69.0354286 C22.1561905,76.9687619 24.0133333,84.4773333 27.3009524,91.1554286 C26.8114286,90.8792381 26.3238095,90.6030476 25.8457143,90.311619 M3.31047619,50.2373333 C3.31047619,24.3573333 24.3580952,3.30590476 50.232381,3.30590476 C60.4133333,3.30590476 69.84,6.57638095 77.5409524,12.1078095 C72.4457143,10.3630476 66.9904762,9.40304762 61.312381,9.40304762 C33.6152381,9.40304762 11.0761905,31.9325714 11.0761905,59.6354286 C11.0761905,68.2278095 13.2495238,76.3211429 17.0685714,83.4030476 C8.57333333,74.9059048 3.31047619,63.1744762 3.31047619,50.2373333 M98.96,26.4297143 C95.7485714,22.791619 92.0190476,19.6220952 87.887619,17.0335238 C78.6761905,6.5992381 65.2133333,-0.000761904762 50.232381,-0.000761904762 C22.5352381,-0.000761904762 0,22.5344762 0,50.2373333 C0,68.1820952 9.46666667,83.951619 23.6609524,92.8373333 C26.872381,96.4754286 30.6019048,99.6449524 34.7295238,102.229714 C43.9409524,112.66781 57.4038095,119.269714 72.3885714,119.269714 C100.087619,119.269714 122.624762,96.736381 122.624762,69.0354286 C122.624762,51.0887619 113.15619,35.3173333 98.96,26.4297143" id="Fill-1" fill="#FEFEFE" mask="url(#mask-2)"></path>
                    </g>
                </g>
            </g>
        </g>
    </g>
</svg>