<?xml version="1.0" encoding="UTF-8"?>
<svg width="220px" height="233px" viewBox="0 0 220 233" version="1.1" xmlns="http://www.w3.org/2000/svg" xmlns:xlink="http://www.w3.org/1999/xlink">
    <!-- Generator: Sketch 47 (45396) - http://www.bohemiancoding.com/sketch -->
    <title>pic-3</title>
    <desc>Created with Sketch.</desc>
    <defs>
        <polygon id="path-1" points="113.179359 119.39069 0 119.39069 0 0.000798428105 113.179359 0.000798428105"></polygon>
    </defs>
    <g id="Welcome" stroke="none" stroke-width="1" fill="none" fill-rule="evenodd">
        <g id="sow-desktop" transform="translate(-522.000000, -4322.000000)">
            <g id="layout/pricing-section" transform="translate(-67.000000, 4184.000000)">
                <g id="pic-3" transform="translate(589.000000, 138.000000)">
                    <rect id="Rectangle-9" fill="#2D2D2D" x="0" y="0" width="220" height="233"></rect>
                    <g id="diamond" transform="translate(53.000000, 57.000000)">
                        <mask id="mask-2" fill="white">
                            <use xlink:href="#path-1"></use>
                        </mask>
                        <g id="Clip-2"></g>
                        <path d="M54.3184138,55.6628276 L55.6301379,24.8435172 L56.2508276,10.2573103 L103.477034,106.451793 L54.3184138,55.6628276 Z M8.35427586,70.0648966 L51.5666897,58.7704138 L86.0604828,94.4083448 L102.32669,111.214552 L8.35427586,70.0648966 Z M6.28944828,18.7855862 L52.3384138,4.878 L50.8218621,40.5055862 L50.2115172,54.8455862 L4.25358621,66.860069 L6.28944828,18.7855862 Z M112.983931,116.442828 C112.979793,116.432483 112.981862,116.420069 112.975655,116.409724 L56.406,1.18696552 L56.406,1.18489655 L56.3853103,1.14351724 C56.3770345,1.12696552 56.3584138,1.11455172 56.3501379,1.09593103 C56.2653103,0.93662069 56.1618621,0.791793103 56.0377241,0.65937931 C55.9963448,0.613862069 55.9508276,0.568344828 55.9053103,0.526965517 C55.866,0.491793103 55.8370345,0.450413793 55.7977241,0.421448276 C55.7191034,0.361448276 55.628069,0.318 55.5432414,0.270413793 C55.4915172,0.23937931 55.448069,0.204206897 55.3963448,0.181448276 C55.2225517,0.100758621 55.0384138,0.0469655172 54.8501379,0.0159310345 C54.7922069,0.00765517241 54.7322069,0.00972413793 54.6742759,0.0055862069 C54.5170345,-0.00475862069 54.3618621,0.00144827586 54.2025517,0.0262758621 C54.1715172,0.0304137931 54.1363448,0.022137931 54.1032414,0.0304137931 C54.0825517,0.0345517241 54.063931,0.0511034483 54.0411724,0.0552413793 C54.006,0.0655862069 53.9666897,0.0635172414 53.9315172,0.0759310345 L3.68668966,15.2497241 C2.84462069,15.5042069 2.25496552,16.2614483 2.21772414,17.1428276 L-0.000206896552,69.4835172 C-0.00227586207,69.5124828 0.0163448276,69.5393793 0.0163448276,69.5704138 C0.0163448276,69.8290345 0.0680689655,70.0731724 0.159103448,70.3069655 C0.183931034,70.3690345 0.20462069,70.4290345 0.233586207,70.4890345 C0.359793103,70.7414483 0.525310345,70.9669655 0.742551724,71.1490345 C0.752896552,71.1573103 0.757034483,71.1717931 0.76737931,71.180069 C0.825310345,71.2235172 0.893586207,71.2442069 0.951517241,71.2835172 C1.04668966,71.3435172 1.13151724,71.418 1.23703448,71.4655862 L110.288069,119.21731 C110.294276,119.219379 110.300483,119.219379 110.30669,119.221448 C110.56531,119.331103 110.838414,119.391103 111.117724,119.391103 C111.308069,119.391103 111.494276,119.355931 111.676345,119.306276 C111.732207,119.291793 111.783931,119.264897 111.839793,119.244207 C111.968069,119.196621 112.094276,119.136621 112.210138,119.062138 C112.243241,119.043517 112.278414,119.03731 112.307379,119.014552 C112.330138,119.000069 112.340483,118.97731 112.363241,118.960759 C112.532897,118.830414 112.690138,118.685586 112.816345,118.501448 C112.818414,118.499379 112.818414,118.49731 112.818414,118.495241 C112.894966,118.387655 112.928069,118.265586 112.981862,118.147655 C113.02531,118.044207 113.091517,117.946966 113.118414,117.841448 C113.134966,117.779379 113.12669,117.71731 113.137034,117.65731 C113.163931,117.483517 113.190828,117.309724 113.174276,117.135931 C113.168069,117.069724 113.139103,117.003517 113.124621,116.935241 C113.091517,116.767655 113.058414,116.600069 112.983931,116.442828 L112.983931,116.442828 Z" id="Fill-1" fill="#FEFEFE" mask="url(#mask-2)"></path>
                    </g>
                </g>
            </g>
        </g>
    </g>
</svg>