<?xml version="1.0" encoding="UTF-8"?>
<svg width="99px" height="19px" viewBox="0 0 99 19" version="1.1" xmlns="http://www.w3.org/2000/svg" xmlns:xlink="http://www.w3.org/1999/xlink">
    <!-- Generator: Sketch 46.2 (44496) - http://www.bohemiancoding.com/sketch -->
    <title>stars</title>
    <desc>Created with Sketch.</desc>
    <defs></defs>
    <g id="Symbols" stroke="none" stroke-width="1" fill="none" fill-rule="evenodd">
        <g id="review" transform="translate(-1.000000, -3.000000)" fill="#F8C905">
            <g id="stars">
                <g transform="translate(1.000000, 3.000000)">
                    <polygon id="Star" points="9.51056516 15 3.63271264 18.0901699 4.75528258 11.545085 3.97903932e-13 6.90983006 6.5716389 5.95491503 9.51056516 0 12.4494914 5.95491503 19.0211303 6.90983006 14.2658477 11.545085 15.3884177 18.0901699"></polygon>
                    <polygon id="Star" points="29.5105652 15 23.6327126 18.0901699 24.7552826 11.545085 20 6.90983006 26.5716389 5.95491503 29.5105652 0 32.4494914 5.95491503 39.0211303 6.90983006 34.2658477 11.545085 35.3884177 18.0901699"></polygon>
                    <polygon id="Star" points="49.5105652 15 43.6327126 18.0901699 44.7552826 11.545085 40 6.90983006 46.5716389 5.95491503 49.5105652 0 52.4494914 5.95491503 59.0211303 6.90983006 54.2658477 11.545085 55.3884177 18.0901699"></polygon>
                    <polygon id="Star" points="69.5105652 15 63.6327126 18.0901699 64.7552826 11.545085 60 6.90983006 66.5716389 5.95491503 69.5105652 0 72.4494914 5.95491503 79.0211303 6.90983006 74.2658477 11.545085 75.3884177 18.0901699"></polygon>
                    <polygon id="Star" points="89.5105652 15 83.6327126 18.0901699 84.7552826 11.545085 80 6.90983006 86.5716389 5.95491503 89.5105652 0 92.4494914 5.95491503 99.0211303 6.90983006 94.2658477 11.545085 95.3884177 18.0901699"></polygon>
                </g>
            </g>
        </g>
    </g>
</svg>