<?xml version="1.0" encoding="UTF-8"?>
<svg width="20px" height="16px" viewBox="0 0 20 16" version="1.1" xmlns="http://www.w3.org/2000/svg" xmlns:xlink="http://www.w3.org/1999/xlink">
    <!-- Generator: Sketch 49 (51002) - http://www.bohemiancoding.com/sketch -->
    <title>twit</title>
    <desc>Created with Sketch.</desc>
    <defs></defs>
    <g id="Welcome" stroke="none" stroke-width="1" fill="none" fill-rule="evenodd">
        <g id="sow-desktop" transform="translate(-227.000000, -5426.000000)" fill="#4A90E2" fill-rule="nonzero">
            <g id="twit" transform="translate(227.000000, 5426.000000)">
                <g id="Layer_1">
                    <path d="M19.375,2.03 C18.66675,2.344 17.90575,2.55625 17.10675,2.6515 C17.922,2.16275 18.5485,1.38875 18.843,0.467 C18.08,0.9195 17.2345,1.2485 16.33525,1.425 C15.615,0.658 14.5885,0.178 13.4525,0.178 C11.2715,0.178 9.503,1.946 9.503,4.1275 C9.503,4.43675 9.538,4.7385 9.6055,5.02775 C6.323,4.863 3.413,3.2905 1.465,0.90075 C1.125,1.48425 0.93025,2.163 0.93025,2.8865 C0.93025,4.25675 1.6275,5.46525 2.68725,6.17375 C2.04,6.153 1.431,5.97525 0.8985,5.67975 C0.898,5.69625 0.898,5.7125 0.898,5.7295 C0.898,7.6425 2.25925,9.23875 4.06575,9.602 C3.7345,9.69175 3.38575,9.74025 3.0255,9.74025 C2.77075,9.74025 2.5235,9.71575 2.28225,9.6695 C2.78475,11.23825 4.24325,12.3805 5.9715,12.4125 C4.61975,13.4715 2.917,14.10325 1.0665,14.10325 C0.74775,14.10325 0.4335,14.08475 0.12425,14.048 C1.872,15.1685 3.948,15.822 6.17825,15.822 C13.44275,15.822 17.41525,9.80425 17.41525,4.58575 C17.41525,4.41475 17.41125,4.244 17.40375,4.07425 C18.176,3.51775 18.84575,2.822 19.375,2.03 Z" id="Shape"></path>
                </g>
            </g>
        </g>
    </g>
</svg>