<?xml version="1.0" encoding="UTF-8"?>
<svg width="24px" height="24px" viewBox="0 0 24 24" version="1.1" xmlns="http://www.w3.org/2000/svg" xmlns:xlink="http://www.w3.org/1999/xlink">
    <!-- Generator: Sketch 44.1 (41455) - http://www.bohemiancoding.com/sketch -->
    <title>Shape</title>
    <desc>Created with Sketch.</desc>
    <defs></defs>
    <g id="Page-1" stroke="none" stroke-width="1" fill="none" fill-rule="evenodd">
        <g id="ID-TheGuide" transform="translate(-494.000000, -2558.000000)" fill="#FFD13F">
            <g id="Group-5-Copy" transform="translate(80.000000, 2148.000000)">
                <g id="Group-3-Copy-4" transform="translate(390.000000, 0.000000)">
                    <g id="Group-4" transform="translate(24.000000, 407.000000)">
                        <path d="M12,26.946 C5.383,26.946 0,21.575 0,14.973 C0,8.371 5.383,3 12,3 C18.617,3 24,8.371 24,14.973 C24,21.575 18.617,26.946 12,26.946 Z M20.627,19.962 L18.156,19.962 C17.645,21.446 16.913,22.851 15.974,24.124 C17.939,23.271 19.556,21.795 20.627,19.962 Z M16.009,19.962 L13,19.962 L13,24.485 C14.31,23.178 15.326,21.637 16.009,19.962 Z M17,14.973 C17,13.955 16.869,12.954 16.641,11.98 L13,11.98 L13,17.966 L16.64,17.966 C16.869,16.992 17,15.991 17,14.973 Z M11,19.962 L7.989,19.962 C8.673,21.639 9.689,23.182 11,24.489 L11,19.962 Z M8.021,24.122 C7.083,22.849 6.353,21.445 5.842,19.962 L3.373,19.962 C4.443,21.793 6.059,23.269 8.021,24.122 Z M2,14.973 C2,16.016 2.165,17.021 2.464,17.966 L5.308,17.966 C5.113,16.988 5,15.988 5,14.975 C5,13.961 5.113,12.96 5.309,11.98 L2.464,11.98 C2.165,12.926 2,13.93 2,14.973 Z M3.373,9.984 L5.844,9.984 C6.355,8.5 7.087,7.095 8.026,5.822 C6.061,6.675 4.444,8.152 3.373,9.984 Z M11,5.464 C9.691,6.769 8.674,8.31 7.991,9.984 L11,9.984 L11,5.464 Z M7.36,11.98 C7.131,12.955 7,13.956 7,14.975 C7,15.992 7.131,16.993 7.359,17.966 L11,17.966 L11,11.98 L7.36,11.98 Z M13,9.984 L16.01,9.984 C15.326,8.309 14.31,6.767 13,5.46 L13,9.984 Z M15.977,5.823 C16.915,7.096 17.646,8.501 18.157,9.984 L20.627,9.984 C19.557,8.153 17.94,6.676 15.977,5.823 Z M21.536,11.98 L18.691,11.98 C18.887,12.959 19,13.959 19,14.973 C19,15.987 18.887,16.987 18.691,17.966 L21.536,17.966 C21.835,17.021 22,16.016 22,14.973 C22,13.93 21.835,12.926 21.536,11.98 Z" id="Shape"></path>
                    </g>
                </g>
            </g>
        </g>
    </g>
</svg>