<?xml version="1.0" encoding="UTF-8"?>
<svg width="18px" height="18px" viewBox="0 0 18 18" version="1.1" xmlns="http://www.w3.org/2000/svg" xmlns:xlink="http://www.w3.org/1999/xlink">
    <!-- Generator: Sketch 48.2 (47327) - http://www.bohemiancoding.com/sketch -->
    <title>fi-x-circle</title>
    <desc>Created with Sketch.</desc>
    <defs></defs>
    <g id="sow-mobile-nav" stroke="none" stroke-width="1" fill="none" fill-rule="evenodd" transform="translate(-267.000000, -34.000000)" opacity="0.400000006">
        <g id="fi-x-circle" transform="translate(267.000000, 34.000000)" fill="#FFFFFF" fill-rule="nonzero">
            <g id="Layer_1">
                <g id="Group">
                    <path d="M17.2223869,13.4438646 L12.7788388,9.00077197 L17.2210207,4.55813468 C17.4049922,4.37416323 17.4049922,4.07543731 17.2210207,3.89146586 L14.1094442,0.778978587 C13.9250174,0.595007138 13.6267468,0.595007138 13.4427754,0.778978587 L8.99968272,5.22161588 L4.55750081,0.778978587 C4.38081535,0.602293136 4.06797281,0.602293136 3.89083199,0.778978587 L0.778344712,3.89146586 C0.690001986,3.98026396 0.63991075,4.10002756 0.63991075,4.22480027 C0.63991075,4.34957299 0.690001986,4.46979196 0.778344712,4.55813468 L5.220982,9.00077197 L0.777433962,13.44432 C0.689091236,13.5322074 0.639,13.6528817 0.639,13.7776544 C0.639,13.9019718 0.689091236,14.0226461 0.777433962,14.1105335 L3.88901049,17.2225654 C3.97735321,17.3109081 4.09802756,17.3609993 4.22280027,17.3609993 C4.34757299,17.3609993 4.46779196,17.3109081 4.55567931,17.2225654 L8.99877197,12.7794727 L13.44232,17.22211 C13.5343057,17.3145511 13.6545247,17.3605439 13.7756544,17.3605439 C13.8967841,17.3605439 14.0170031,17.3145511 14.1089888,17.22211 L17.2214761,14.1100781 C17.4063583,13.926562 17.4063583,13.6278361 17.2223869,13.4438646 Z" id="Shape"></path>
                </g>
            </g>
        </g>
    </g>
</svg>