<svg id="Layer_1" data-name="Layer 1" xmlns="http://www.w3.org/2000/svg" viewBox="0 0 374.07 182.48">
  <defs>
    <style>.cls-1{fill:#6d6e70;}</style>
  </defs>

  <title>logo-transparent</title>

  <path class="cls-1" d="M306.78,224.15l-11.46-9.7-11.46,9.7H209V396.93H381.66V224.15H306.78ZM255.68,364.67H250V265.56h5.69v99.11Zm17-38.12H267v-61h5.69v61Zm17,38.12H284V265.56h5.69v99.11Zm17,0H301V265.56h5.69v99.11Zm17,0H318V265.56h5.69v99.11Zm17-38.12H335v-61h5.69v61Z" transform="translate(-208.98 -214.45)"/>

  <polygon class="cls-1" points="230.55 71.24 230.55 49.03 230.47 49.03 220.84 71.16 218.69 71.16 208.98 49.03 208.9 49.03 208.9 71.24 205.34 71.24 205.34 44.13 210.62 44.13 219.9 65.48 229.14 44.13 234.35 44.13 234.35 71.24 230.55 71.24"/>

  <polygon class="cls-1" points="244.45 71.24 244.45 44.13 259.32 44.13 258.89 47.11 248.28 47.11 248.28 55.92 257.41 55.92 257.41 58.9 248.28 58.9 248.28 68.26 259.67 68.26 259.24 71.24 244.45 71.24"/>

  <polygon class="cls-1" points="277.56 47.19 277.56 71.24 273.77 71.24 273.77 47.19 266.01 47.19 266.01 44.13 285.36 44.13 284.92 47.19 277.56 47.19"/>

  <path class="cls-1" d="M517.4,285.69l-3.21-6.5a12.76,12.76,0,0,0-3.05-4.27,6,6,0,0,0-3.84-1.21h-1.41v12h-3.84V258.58h7a10.13,10.13,0,0,1,6.44,1.9,6.26,6.26,0,0,1,2.41,5.19,6.53,6.53,0,0,1-1.68,4.41,7.24,7.24,0,0,1-4.35,2.41v0.08a8.06,8.06,0,0,1,3.23,1.86,15.14,15.14,0,0,1,3,4.33l3.52,6.93H517.4Zm-10.26-24.13h-1.25v9.21h1.25a9.06,9.06,0,0,0,4.86-1.1,4.07,4.07,0,0,0,1.72-3.72,3.71,3.71,0,0,0-1.57-3.39,9.62,9.62,0,0,0-5-1" transform="translate(-208.98 -214.45)"/>

  <path class="cls-1" d="M530.79,282.08a14.6,14.6,0,0,1-3.52-10,14.33,14.33,0,0,1,3.58-10,13.46,13.46,0,0,1,19-.06,14.24,14.24,0,0,1,3.6,10,14.54,14.54,0,0,1-3.54,10,13.4,13.4,0,0,1-19.16,0m3-17.81q-2.45,2.84-2.45,7.89t2.51,7.83A9.14,9.14,0,0,0,547,280q2.39-2.8,2.39-8.13a10.87,10.87,0,0,0-2.59-7.64,8.39,8.39,0,0,0-6.46-2.82,8.26,8.26,0,0,0-6.6,2.84" transform="translate(-208.98 -214.45)"/>

  <rect class="cls-1" x="205.34" y="91.14" width="3.84" height="27.11"/>

  <path class="cls-1" d="M436.64,332.69h-8.34V305.59h8.3q6.54,0,10.39,3.62t3.86,9.81q0,6.46-3.8,10.07t-10.41,3.6m-0.78-24.13h-3.72v21.15h3q6,0,8.81-2.56t2.86-7.86q0-5.41-2.94-8.07a11.44,11.44,0,0,0-8-2.66" transform="translate(-208.98 -214.45)"/>

  <polygon class="cls-1" points="250.91 118.25 250.91 91.14 265.78 91.14 265.35 94.12 254.74 94.12 254.74 102.93 263.87 102.93 263.87 105.91 254.74 105.91 254.74 115.27 266.13 115.27 265.7 118.25 250.91 118.25"/>

  <path class="cls-1" d="M491.21,305.59h3.25l9.94,27.11h-4l-2.9-8h-9.87l-2.86,8h-3.72Zm1.45,4.9h0l-4,11.24h7.91Z" transform="translate(-208.98 -214.45)"/>

  <path class="cls-1" d="M511.8,328.19a22,22,0,0,0,3,1.27,10.58,10.58,0,0,0,3.41.53,5.14,5.14,0,0,0,3.13-.92,3.38,3.38,0,0,0,1.25-2.92A4.08,4.08,0,0,0,521,323a27.19,27.19,0,0,0-4.54-3,13.68,13.68,0,0,1-4.42-3.52,7.08,7.08,0,0,1-1.47-4.43,6,6,0,0,1,2.35-5,9.36,9.36,0,0,1,6-1.86,15.56,15.56,0,0,1,3.44.37,16.65,16.65,0,0,1,3.13,1l-1.17,3a17.67,17.67,0,0,0-2.56-.92,9.8,9.8,0,0,0-2.6-.37,5.68,5.68,0,0,0-3.46.9,3.13,3.13,0,0,0-1.19,2.66q0,2.62,4.13,4.8a25.51,25.51,0,0,1,6,4.05,6.73,6.73,0,0,1,1.88,5,6.85,6.85,0,0,1-2.29,5.35,8.6,8.6,0,0,1-6,2.06,17.38,17.38,0,0,1-4.11-.45,15.4,15.4,0,0,1-3.6-1.39Z" transform="translate(-208.98 -214.45)"/>

  <path class="cls-1" d="M421.07,369a13.26,13.26,0,0,1-1.55-.29l-1.37-.31V379.7h-3.84V352.6h6.77q4.77,0,7.22,2.11a7.4,7.4,0,0,1,2.45,5.92,8.51,8.51,0,0,1-2.31,6,7.65,7.65,0,0,1-5.83,2.47,12,12,0,0,1-1.55-.1m-0.76-13.46h-2.15v9.95a10.94,10.94,0,0,0,1.8.45,11.68,11.68,0,0,0,1.61.1,4.79,4.79,0,0,0,5.13-5.13,4.94,4.94,0,0,0-1.6-4.06,7.42,7.42,0,0,0-4.78-1.31" transform="translate(-208.98 -214.45)"/>

  <path class="cls-1" d="M454.17,379.7L451,373.2a12.76,12.76,0,0,0-3.05-4.27,6,6,0,0,0-3.84-1.21h-1.41v12h-3.84V352.6h7a10.13,10.13,0,0,1,6.44,1.9,6.26,6.26,0,0,1,2.41,5.19,6.53,6.53,0,0,1-1.68,4.41,7.23,7.23,0,0,1-4.35,2.41v0.08a8.06,8.06,0,0,1,3.23,1.86,15.14,15.14,0,0,1,3,4.33l3.52,6.93h-4.15Zm-10.26-24.13h-1.25v9.21h1.25a9.05,9.05,0,0,0,4.86-1.1,4.07,4.07,0,0,0,1.72-3.72,3.71,3.71,0,0,0-1.57-3.39,9.62,9.62,0,0,0-5-1" transform="translate(-208.98 -214.45)"/>

  <path class="cls-1" d="M467.56,376.1a14.6,14.6,0,0,1-3.52-10,14.33,14.33,0,0,1,3.58-10,13.46,13.46,0,0,1,19-.06,14.24,14.24,0,0,1,3.6,10,14.54,14.54,0,0,1-3.54,10,13.4,13.4,0,0,1-19.16,0m3-17.81q-2.45,2.84-2.45,7.89t2.51,7.83a9.14,9.14,0,0,0,13.19,0q2.39-2.8,2.39-8.13a10.87,10.87,0,0,0-2.59-7.64,8.39,8.39,0,0,0-6.46-2.82,8.26,8.26,0,0,0-6.6,2.84" transform="translate(-208.98 -214.45)"/>

  <path class="cls-1" d="M493.2,384.52q3.41-.39,4.8-2.27a9.22,9.22,0,0,0,1.39-5.52V352.6h3.84v24.09q0,5.13-2.21,7.72t-6.83,3Z" transform="translate(-208.98 -214.45)"/>

  <polygon class="cls-1" points="304.35 165.25 304.35 138.15 319.22 138.15 318.79 141.13 308.18 141.13 308.18 149.94 317.31 149.94 317.31 152.92 308.18 152.92 308.18 162.28 319.57 162.28 319.14 165.25 304.35 165.25"/>

  <path class="cls-1" d="M555.33,357a11.53,11.53,0,0,0-2.9-1.16,12.34,12.34,0,0,0-3.05-.41,9.15,9.15,0,0,0-7.1,2.94A10.77,10.77,0,0,0,539.6,366a11.25,11.25,0,0,0,2.72,7.93,9.11,9.11,0,0,0,7,3,11.66,11.66,0,0,0,3.7-.57,14,14,0,0,0,3.46-1.78l1.57,2.7a15.77,15.77,0,0,1-4.17,2.19,14.59,14.59,0,0,1-4.76.74,13.24,13.24,0,0,1-9.88-3.84,13.62,13.62,0,0,1-3.78-10,13.93,13.93,0,0,1,3.86-10.15,13.3,13.3,0,0,1,10-4,15.79,15.79,0,0,1,3.76.45,14.45,14.45,0,0,1,3.49,1.35Z" transform="translate(-208.98 -214.45)"/>

  <polygon class="cls-1" points="366.28 141.2 366.28 165.25 362.48 165.25 362.48 141.2 354.73 141.2 354.73 138.15 374.07 138.15 373.64 141.2 366.28 141.2"/>
</svg>