<?xml version="1.0" encoding="UTF-8"?>
<svg width="362px" height="325px" viewBox="0 0 362 325" version="1.1" xmlns="http://www.w3.org/2000/svg" xmlns:xlink="http://www.w3.org/1999/xlink">
    <!-- Generator: Sketch 43.2 (39069) - http://www.bohemiancoding.com/sketch -->
    <title>Group 5</title>
    <desc>Created with Sketch.</desc>
    <defs>
        <filter x="-2.8%" y="-4.3%" width="105.6%" height="110.6%" filterUnits="objectBoundingBox" id="filter-1">
            <feOffset dx="0" dy="1" in="SourceAlpha" result="shadowOffsetOuter1"></feOffset>
            <feGaussianBlur stdDeviation="1.5" in="shadowOffsetOuter1" result="shadowBlurOuter1"></feGaussianBlur>
            <feColorMatrix values="0 0 0 0 0   0 0 0 0 0   0 0 0 0 0  0 0 0 0.25 0" type="matrix" in="shadowBlurOuter1" result="shadowMatrixOuter1"></feColorMatrix>
            <feMerge>
                <feMergeNode in="shadowMatrixOuter1"></feMergeNode>
                <feMergeNode in="SourceGraphic"></feMergeNode>
            </feMerge>
        </filter>
    </defs>
    <g id="Page-1" stroke="none" stroke-width="1" fill="none" fill-rule="evenodd">
        <g id="EC-About-DigitalEquity" transform="translate(-372.000000, -915.000000)">
            <g id="Group-5" transform="translate(372.000000, 915.000000)">
                <rect id="Rectangle-10" fill="#3BB0C9" x="0" y="0" width="362" height="325"></rect>
                <g id="tgh-logo-reversed" filter="url(#filter-1)" transform="translate(92.000000, 116.000000)" fill-rule="nonzero">
                    <path d="M60.0294671,22.7390613 L60.0294671,28.0566933 L49.5802707,20.2079816 C48.4551151,19.3672041 46.9118699,19.3672041 45.7867143,20.2079816 L23.7008736,36.7966748 C22.9067416,37.3951832 22.4394136,38.3324435 22.4388502,39.3277546 L22.4388502,66.0027055 L28.7564533,66.0027055 L28.7564533,40.909319 L47.6833485,26.6922515 L66.6102437,40.909319 L66.6102437,66.0027055 L72.9278468,66.0027055 L72.9278468,39.3277546 C72.9278468,38.332681 72.4596629,37.3932577 71.6658235,36.7966748 L66.3467823,32.8010982 L66.3467823,22.7390613 L60.0294671,22.7390613 L60.0294671,22.7390613 Z" id="Shape" fill="#FFF000"></path>
                    <path d="M123.592196,10.2901166 L123.592196,20.418184 L119.690088,20.418184 L119.690088,10.2901166 L116.122561,10.2901166 L116.122561,7.05086503 L126.955001,7.05086503 L127.41685,10.2892515 L123.592196,10.2901166 L123.592196,10.2901166 Z M130.44536,20.418184 L130.44536,7.05173006 L139.507569,7.05173006 L139.507569,9.93084049 L134.142746,9.93084049 L134.142746,12.2182699 L138.171834,12.2182699 L138.608345,15.0457669 L134.142746,15.0457669 L134.142746,17.5653129 L139.660751,17.5653129 L139.660751,20.4187607 L130.44536,20.418184 Z M149.004273,20.6494356 C144.974898,20.6494356 142.35612,18.1045153 142.35612,13.7606196 C142.35612,9.44209816 145.205534,6.8196135 148.90148,6.8196135 C150.466988,6.8196135 151.622187,7.12842945 152.572664,7.6676319 L152.110815,10.9584969 C151.365924,10.3930552 150.390973,10.0075399 149.390108,10.0075399 C147.567761,10.0075399 146.23289,11.2156994 146.23289,13.760908 C146.23289,16.280454 147.645216,17.5131227 149.440784,17.5131227 C150.441938,17.5131227 151.417465,17.2043067 152.341739,16.6651043 L152.778538,19.7238528 C151.72498,20.2898712 150.390397,20.6494356 149.004273,20.6494356 L149.004273,20.6494356 Z M163.892291,20.418184 L163.892291,15.1746564 L159.835849,15.1746564 L159.835849,20.418184 L156.087786,20.418184 L156.087786,7.05173006 L159.835849,7.05173006 L159.835849,11.9607791 L163.892291,11.9607791 L163.892291,7.05173006 L167.614727,7.05173006 L167.614727,20.418184 L163.892291,20.418184 Z M122.898847,43.3694663 C118.792016,43.3694663 116.353774,40.5673436 116.353774,36.4552761 C116.353774,32.2137423 119.048279,29.4888957 123.079382,29.4888957 C124.799224,29.4888957 126.133519,29.874411 127.211552,30.4407178 L126.69845,33.6531534 C125.618978,33.0363865 124.542385,32.6505828 123.20665,32.6505828 C121.410218,32.6505828 120.075634,33.9103558 120.075634,36.5319755 C120.075634,39.0768957 121.179293,40.4649816 123.284393,40.4649816 C123.951541,40.4649816 124.336799,40.3620429 124.721769,40.1824049 L124.721769,37.9722515 L122.667346,37.9722515 L122.28324,35.4013804 L128.007982,35.4013804 L128.007982,42.0081963 C126.621571,42.8040245 125.003947,43.3694663 122.898847,43.3694663 Z M137.146494,43.3694663 C133.526851,43.3694663 130.779942,40.6186687 130.779942,36.4552761 C130.779942,32.2650675 133.55219,29.4888957 137.171833,29.4888957 C140.791476,29.4888957 143.56286,32.2396933 143.56286,36.4299018 C143.56286,40.5932945 140.791476,43.3694663 137.146494,43.3694663 L137.146494,43.3694663 Z M137.171545,32.5225583 C135.450839,32.5225583 134.552767,34.1926442 134.552767,36.4293252 C134.552767,38.6662945 135.476178,40.3623313 137.171545,40.3623313 C138.891386,40.3623313 139.763544,38.6916687 139.763544,36.4555644 C139.763544,34.2183067 138.83927,32.5225583 137.171545,32.5225583 Z M146.104182,43.1128405 L146.104182,29.7455215 L155.166391,29.7455215 L155.166391,32.6243436 L149.801568,32.6243436 L149.801568,34.9120613 L153.830656,34.9120613 L154.267455,37.7395583 L149.801568,37.7395583 L149.801568,40.2591043 L155.319573,40.2591043 L155.319573,43.1128405 L146.104182,43.1128405 L146.104182,43.1128405 Z M163.24789,43.3178528 C161.348376,43.3178528 159.499828,42.8553497 158.114568,42.3406564 L158.653872,39.3081472 C160.039708,39.8986748 161.913019,40.4387423 163.248466,40.4387423 C164.505594,40.4387423 165.070237,40.0278528 165.070237,39.3848466 C165.070237,38.7421288 164.633726,38.4338896 163.273804,38.022135 C160.218804,37.1481656 158.550503,36.2998589 158.550503,33.755227 C158.550503,31.2111718 160.551658,29.5658834 163.40136,29.5658834 C165.300586,29.5658834 166.840755,30.0030123 167.842772,30.4401411 L167.32967,33.396816 C166.148269,32.8821227 164.660216,32.4449939 163.427562,32.4449939 C162.451747,32.4449939 161.939509,32.8821227 161.939509,33.4221902 C161.939509,34.064908 162.349818,34.347773 163.813396,34.7849018 C167.124084,35.7618098 168.48487,36.6092515 168.48487,38.9751104 C168.483718,41.6471902 166.404244,43.3178528 163.24789,43.3178528 Z M125.030149,65.8069202 L125.030149,60.5633926 L120.973707,60.5633926 L120.973707,65.8069202 L117.225932,65.8069202 L117.225932,52.4404663 L120.973707,52.4404663 L120.973707,57.3495153 L125.030149,57.3495153 L125.030149,52.4404663 L128.752585,52.4404663 L128.752585,65.8069202 L125.030149,65.8069202 Z M138.070769,66.0641227 C134.451126,66.0641227 131.704217,63.3133252 131.704217,59.1499325 C131.704217,54.9597239 134.476464,52.1835521 138.096107,52.1835521 C141.716038,52.1835521 144.487134,54.9343497 144.487134,59.1245583 C144.487998,63.2879509 141.716902,66.0641227 138.070769,66.0641227 L138.070769,66.0641227 Z M138.096683,55.2163497 C136.375978,55.2163497 135.477905,56.8861472 135.477905,59.1231166 C135.477905,61.3600859 136.401316,63.0561227 138.096683,63.0561227 C139.816525,63.0561227 140.688683,61.3854601 140.688683,59.1493558 C140.689546,56.9132515 139.764408,55.2163497 138.096683,55.2163497 Z M160.094703,65.8069202 L159.555399,56.0389939 L156.988738,65.8331595 L153.266302,65.8331595 L150.673438,56.0389939 L150.160336,65.8069202 L146.951578,65.8069202 L147.8246,52.4404663 L152.9847,52.4404663 L155.346639,61.1288344 L157.733628,52.4401779 L162.893729,52.4401779 L163.766751,65.8066319 L160.094703,65.8066319 L160.094703,65.8069202 Z M167.001135,65.8069202 L167.001135,52.4404663 L176.063344,52.4404663 L176.063344,55.3192883 L170.698521,55.3192883 L170.698521,57.6070061 L174.727897,57.6070061 L175.164408,60.4347914 L170.698521,60.4347914 L170.698521,62.9540491 L176.216814,62.9540491 L176.216814,65.8077853 L167.001135,65.8069202 L167.001135,65.8069202 Z" id="Shape" fill="#FFFFFF"></path>
                    <path d="M123.257903,88.7325399 C119.228527,88.7325399 116.609749,86.1876196 116.609749,81.8437239 C116.609749,77.5249141 119.459164,74.9027178 123.154822,74.9027178 C124.720618,74.9027178 125.875529,75.2115337 126.826005,75.7507362 L126.364156,79.0413129 C125.619266,78.4758712 124.644314,78.0903558 123.643449,78.0903558 C121.821102,78.0903558 120.486231,79.2985153 120.486231,81.8437239 C120.486231,84.3632699 121.898269,85.596227 123.694126,85.596227 C124.695279,85.596227 125.670806,85.287411 126.595081,84.7482086 L127.03188,87.8069571 C125.979474,88.3729755 124.645754,88.7325399 123.257903,88.7325399 L123.257903,88.7325399 Z M138.301406,88.5015767 L138.301406,83.2580491 L134.245251,83.2580491 L134.245251,88.5015767 L130.497189,88.5015767 L130.497189,75.1351227 L134.245251,75.1351227 L134.245251,80.0441718 L138.301406,80.0441718 L138.301406,75.1351227 L142.02413,75.1351227 L142.02413,88.5015767 L138.301406,88.5015767 Z M148.545016,88.5015767 L144.925085,88.5015767 L149.493765,75.058135 L154.268607,75.058135 L158.658767,88.0131227 L154.987583,88.707454 L154.140763,85.8540061 L149.341159,85.8540061 L148.545016,88.5015767 L148.545016,88.5015767 Z M151.779112,77.8856319 L151.675455,77.8856319 L150.1612,83.0530368 L153.318418,83.0530368 L151.779112,77.8856319 L151.779112,77.8856319 Z" id="Shape" fill="#FFF000"></path>
                    <path d="M7.0161358,47.7750675 C7.01699961,25.3191595 25.2603348,7.05057669 47.6839244,7.05057669 C70.1092416,7.05057669 88.351713,25.3206012 88.351713,47.7759325 C88.351713,73.3211534 76.2912269,82.3869632 65.9664189,82.3869632 C56.9917426,82.3869632 51.1918483,75.5243865 51.1918483,64.9046933 L51.1918483,52.7833067 L59.7677333,59.2251902 L59.7677333,51.3141963 L49.5814224,43.6632883 C48.4562669,42.8225109 46.9130216,42.8225109 45.787866,43.6632883 L35.6015552,51.3141963 L35.6015552,59.2251902 L44.1774401,52.7833067 L44.1774401,64.9046933 C44.1774401,79.3365767 53.1391593,89.4121656 65.9678585,89.4121656 C79.5302186,89.4121656 95.3692885,78.5064356 95.3692885,47.7759325 C95.3692885,21.4472822 73.9776614,0.0253742331 47.6862279,0.0253742331 C21.3947944,0.0253742331 0.00172761583,21.4472822 0.00172761583,47.7759325 C0.00230348777,69.9656994 15.1195178,88.6166258 35.6021311,93.9752025 L35.6021311,86.6731902 C19.0412058,81.5187607 7.0161358,66.053454 7.0161358,47.7750675 L7.0161358,47.7750675 Z" id="Shape" fill="#FFFFFF"></path>
                </g>
            </g>
        </g>
    </g>
</svg>