<?xml version="1.0" encoding="UTF-8"?>
<svg width="440px" height="569px" viewBox="0 0 440 569" version="1.1" xmlns="http://www.w3.org/2000/svg" xmlns:xlink="http://www.w3.org/1999/xlink">
    <!-- Generator: Sketch 44 (41411) - http://www.bohemiancoding.com/sketch -->
    <title>Group 38</title>
    <desc>Created with Sketch.</desc>
    <defs>
        <rect id="path-1" x="0" y="0" width="441" height="569"></rect>
    </defs>
    <g id="Page-1" stroke="none" stroke-width="1" fill="none" fill-rule="evenodd">
        <g id="ID-Contact" transform="translate(0.000000, -60.000000)">
            <g id="Group-38" transform="translate(-1.000000, 60.000000)">
                <mask id="mask-2" fill="white">
                    <use xlink:href="#path-1"></use>
                </mask>
                <use id="Mask" fill="#FFFFFF" xlink:href="#path-1"></use>
                <g opacity="0.5" mask="url(#mask-2)" id="Group-22">
                    <g transform="translate(236.500000, 259.500000) scale(-1, 1) rotate(-90.000000) translate(-236.500000, -259.500000) translate(-74.000000, 24.000000)">
                        <g>
                            <path d="M551.527936,237.602913 C574.867582,233.351395 597.907962,231.296834 620.468889,231.296834 L620.468889,-0.000156478405 L551.527936,52.6704748 L551.527936,237.602913 Z" id="Fill-1" fill="#EAECED"></path>
                            <path d="M482.586983,256.669181 L482.586983,105.34361 L413.64603,158.014241 L413.64603,292.349387 C434.958186,278.091075 458.014234,266.064145 482.586983,256.669181" id="Fill-4" fill="#EAECED"></path>
                            <path d="M344.702884,210.688315 L275.763498,263.358946 L275.763498,470.613029 C291.151432,427.177753 314.625826,387.20065 344.702884,352.906843 L344.702884,210.688315 Z" id="Fill-6" fill="#EAECED"></path>
                            <polygon id="Fill-8" fill="#EAECED" points="137.882219 470.737429 206.823172 470.737429 206.823172 316.030359 137.882219 368.702555"></polygon>
                            <polygon id="Fill-11" fill="#EAECED" points="0.000313367967 470.737429 0.000313367967 470.737429 66.3465794 470.737429 66.3465794 423.355768 4.33105868 470.737429"></polygon>
                            <path d="M504.640567,249.048526 C497.158907,251.348759 489.813562,253.905616 482.587296,256.669025 C458.014547,266.063988 434.958499,278.092483 413.646344,292.349231 C387.976807,309.521171 364.854951,329.929084 344.702257,352.906373 C314.626766,387.200181 291.152372,427.177284 275.764438,470.614124 C275.74877,470.654809 275.733101,470.695493 275.719,470.737742 L328.173664,470.737742 C362.443585,389.104523 430.467936,323.694985 518.453827,295.999872 C553.132693,285.082373 587.382245,280.018732 620.469202,280.018732 L620.469202,231.296051 C597.906708,231.296051 574.867896,233.352177 551.528249,237.603696 C536.013401,240.428131 520.370072,244.214908 504.640567,249.048526" id="Fill-17" fill="#EAECED"></path>
                            <path d="M381.742351,470.737429 L438.515226,470.737429 C462.431469,435.576732 496.800101,407.673502 538.492142,392.36209 C566.369356,382.125273 593.958272,377.432486 620.469202,377.432486 L620.469202,328.725452 C588.983556,328.723888 556.253838,334.145864 523.165315,345.930253 C460.410245,368.278499 410.934144,413.862223 381.742351,470.737429" id="Fill-20" fill="#EAECED"></path>
                            <path d="M501.388748,470.247339 L619.772899,470.247339 L619.772899,425.621262 C595.823752,425.621262 570.735512,430.576934 545.485888,441.461571 C528.941626,448.595422 514.138124,458.409748 501.388748,470.247339" id="Fill-23" fill="#EAECED"></path>
                        </g>
                    </g>
                </g>
            </g>
        </g>
    </g>
</svg>