<?xml version="1.0" encoding="UTF-8"?>
<svg width="801px" height="530px" viewBox="0 0 801 530" version="1.1" xmlns="http://www.w3.org/2000/svg" xmlns:xlink="http://www.w3.org/1999/xlink">
    <!-- Generator: Sketch 44 (41411) - http://www.bohemiancoding.com/sketch -->
    <title>Group 4</title>
    <desc>Created with Sketch.</desc>
    <defs>
        <rect id="path-1" x="0" y="0" width="801" height="530"></rect>
    </defs>
    <g id="Page-1" stroke="none" stroke-width="1" fill="none" fill-rule="evenodd">
        <g id="Group-4">
            <mask id="mask-2" fill="white">
                <use xlink:href="#path-1"></use>
            </mask>
            <use id="Mask" fill="#FFFFFF" xlink:href="#path-1"></use>
            <g opacity="0.5" mask="url(#mask-2)" id="Group-38-Copy">
                <g transform="translate(0.000000, -67.000000)">
                    <g transform="translate(650.000000, 332.684973) scale(-1, -1) translate(-650.000000, -332.684973) ">
                        <g id="Group-22" fill="#EAECED">
                            <path d="M1202.52292,345.649639 C1235.44086,339.643834 1267.93672,336.741507 1299.75637,336.741507 L1299.75637,-0.000221045479 L1202.52292,4.3647455 L1202.52292,345.649639 Z" id="Fill-1"></path>
                            <path d="M1105.28946,138.805569 L1008.05601,213.209477 L1008.05601,422.985937 C1038.1144,402.844273 1070.63236,385.854717 1105.28946,372.583147 L1105.28946,138.805569 Z" id="Fill-4"></path>
                            <path d="M910.819459,287.618249 L813.588214,362.022157 L813.588214,664.800247 C835.291163,603.442443 868.399155,586.991996 910.819459,538.547669 L910.819459,287.618249 Z" id="Fill-6"></path>
                            <polygon id="Fill-8" points="619.122189 664.975978 716.355644 664.975978 716.355644 400.806736 619.122189 490.746867"></polygon>
                            <polygon id="Fill-11" points="424.655281 664.975978 424.655281 664.975978 518.229221 664.975978 518.229221 598.043407 430.763309 664.975978"></polygon>
                            <polygon id="Fill-14" points="0.000441970247 0.000442090959 0.000441970247 664.975978 430.763309 664.975978 1299.75637 0.000442090959"></polygon>
                            <path d="M1136.39356,351.812448 C1125.84152,355.061816 1115.48174,358.6737 1105.2899,362.577363 C1070.63281,375.848933 1038.11485,392.840699 1008.05645,412.980153 C971.852456,437.237684 939.241682,466.066435 910.818575,498.524753 C868.400481,546.969081 835.292489,603.44178 813.58954,664.801794 C813.567442,664.859266 813.545343,664.916738 813.525455,664.97642 L887.506854,664.97642 C935.840721,549.659204 1031.78141,457.259983 1155.87561,418.137144 C1204.78625,402.714801 1253.09138,395.561769 1299.75681,395.561769 L1299.75681,326.734838 C1267.93495,326.734838 1235.4413,329.639376 1202.52336,335.645182 C1180.64141,339.635052 1158.57826,344.984353 1136.39356,351.812448" id="Fill-17"></path>
                            <path d="M963.059458,664.975978 L1043.13121,664.975978 C1076.86238,615.307059 1125.33546,575.890229 1184.1374,554.260929 C1223.45507,539.800134 1262.36613,533.17098 1299.75681,533.17098 L1299.75681,464.366153 C1255.34985,464.363943 1209.18827,472.023169 1162.52063,488.670104 C1074.01167,520.239819 1004.2312,584.632578 963.059458,664.975978" id="Fill-20"></path>
                        </g>
                    </g>
                </g>
            </g>
        </g>
    </g>
</svg>