<?xml version="1.0" encoding="UTF-8"?>
<svg width="245px" height="282px" viewBox="0 0 245 282" version="1.1" xmlns="http://www.w3.org/2000/svg" xmlns:xlink="http://www.w3.org/1999/xlink">
    <!-- Generator: Sketch 43.2 (39069) - http://www.bohemiancoding.com/sketch -->
    <title>post-lower-right-background</title>
    <desc>Created with Sketch.</desc>
    <defs></defs>
    <g id="SIte-Pages" stroke="none" stroke-width="1" fill="none" fill-rule="evenodd" opacity="0.5">
        <g id="/community/post-title/" transform="translate(-1055.000000, -2019.000000)" fill="#EAECED">
            <g id="post-lower-right-background" transform="translate(1177.500000, 2160.000000) scale(1, -1) translate(-1177.500000, -2160.000000) translate(1055.000000, 2019.000000)">
                <polygon id="Fill-1" points="0.138397537 -0.000167673311 0.133368081 11.8239972 244.906947 281.690994 244.906947 7.92749306 244.519679 -0.000167673311"></polygon>
                <polygon id="Fill-2" points="222.331897 281.692839 244.905774 281.692839 244.905774 0.00167673311 222.331897 0.00167673311"></polygon>
                <polygon id="Fill-3" points="177.187498 281.692839 199.761374 281.692839 199.761374 0.00167673311 177.187498 0.00167673311"></polygon>
                <polygon id="Fill-4" points="132.039745 281.692839 154.613621 281.692839 154.613621 0.00167673311 132.039745 0.00167673311"></polygon>
                <polygon id="Fill-5" points="86.8919922 281.692839 109.465869 281.692839 109.465869 0.00167673311 86.8919922 0.00167673311"></polygon>
                <polygon id="Fill-6" points="41.745916 281.692839 64.3197923 281.692839 64.3197923 0.00167673311 41.745916 0.00167673311"></polygon>
                <polygon id="Fill-7" points="0.138900483 281.692839 19.1737161 281.692839 19.1737161 0.00167673311 0.138900483 0.00167673311"></polygon>
            </g>
        </g>
    </g>
</svg>