<?xml version="1.0" encoding="UTF-8"?>
<svg width="1300px" height="656px" viewBox="0 0 1300 656" version="1.1" xmlns="http://www.w3.org/2000/svg" xmlns:xlink="http://www.w3.org/1999/xlink">
    <!-- Generator: Sketch 43.2 (39069) - http://www.bohemiancoding.com/sketch -->
    <title>upper-left-homepage-accent</title>
    <desc>Created with Sketch.</desc>
    <defs></defs>
    <g id="SIte-Pages" stroke="none" stroke-width="1" fill="none" fill-rule="evenodd" opacity="0.5">
        <g id="/" transform="translate(0.000000, -424.000000)" fill="#EAECED">
            <g id="Group-4" transform="translate(0.000000, 423.000000)">
                <g id="upper-left-homepage-accent">
                    <g id="Group-38-Copy" transform="translate(650.000000, 328.392515) scale(-1, -1) translate(-650.000000, -328.392515) translate(0.000000, 0.392515)">
                        <g id="Group-22">
                            <path d="M1202.52292,340.466515 C1235.44086,334.550768 1267.93672,331.691962 1299.75637,331.691962 L1299.75637,-0.000217730833 L1202.52292,4.29929477 L1202.52292,340.466515 Z" id="Fill-1"></path>
                            <path d="M1105.28946,136.724136 L1008.05601,210.012334 L1008.05601,416.64313 C1038.1144,396.803497 1070.63236,380.068705 1105.28946,366.996146 L1105.28946,136.724136 Z" id="Fill-4"></path>
                            <path d="M910.819459,283.305323 L813.588214,356.593521 L813.588214,654.831358 C835.291163,594.393634 868.399155,578.189867 910.819459,530.471978 L910.819459,283.305323 Z" id="Fill-6"></path>
                            <polygon id="Fill-8" points="619.122189 655.004454 716.355644 655.004454 716.355644 394.796513 619.122189 483.387964"></polygon>
                            <polygon id="Fill-11" points="424.655281 655.004454 424.655281 655.004454 518.229221 655.004454 518.229221 589.075558 430.763309 655.004454"></polygon>
                            <polygon id="Fill-14" points="0.000441970247 0.000435461666 0.000441970247 655.004454 430.763309 655.004454 1299.75637 0.000435461666"></polygon>
                            <path d="M1136.39356,346.53691 C1125.84152,349.737553 1115.48174,353.295275 1105.2899,357.140401 C1070.63281,370.212961 1038.11485,386.94993 1008.05645,406.787386 C971.852456,430.681167 939.241682,459.077623 910.818575,491.049218 C868.400481,538.767107 835.292489,594.392981 813.58954,654.832883 C813.567442,654.889493 813.545343,654.946103 813.525455,655.00489 L887.506854,655.00489 C935.840721,541.416892 1031.78141,450.403226 1155.87561,411.867046 C1204.78625,396.675966 1253.09138,389.630196 1299.75681,389.630196 L1299.75681,321.835347 C1267.93495,321.835347 1235.4413,324.69633 1202.52336,330.612077 C1180.64141,334.542118 1158.57826,339.811204 1136.39356,346.53691" id="Fill-17"></path>
                            <path d="M963.059458,655.004454 L1043.13121,655.004454 C1076.86238,606.080336 1125.33546,567.254574 1184.1374,545.949612 C1223.45507,531.705661 1262.36613,525.175913 1299.75681,525.175913 L1299.75681,457.402837 C1255.34985,457.40066 1209.18827,464.945033 1162.52063,481.342342 C1074.01167,512.43866 1004.2312,575.865829 963.059458,655.004454" id="Fill-20"></path>
                            <path d="M1131.80723,654.322521 L1298.77475,654.322521 L1298.77475,592.227865 C1264.99718,592.227865 1229.61304,599.123401 1194.00129,614.268757 C1170.66747,624.195106 1149.78879,637.851184 1131.80723,654.322521" id="Fill-23"></path>
                        </g>
                    </g>
                </g>
            </g>
        </g>
    </g>
</svg>